<svg id="svg" version="1.1" xmlns="http://www.w3.org/2000/svg" xmlns:xlink="http://www.w3.org/1999/xlink" width="400" height="400" viewBox="0, 0, 400,400"><g id="svgg"><path id="path0" d="M184.000 0.237 C 183.230 0.319,180.080 0.579,177.000 0.815 C 173.920 1.051,171.040 1.402,170.600 1.596 C 170.160 1.790,167.955 2.160,165.700 2.419 C 163.445 2.678,161.600 3.017,161.600 3.173 C 161.600 3.329,159.940 3.677,157.912 3.947 C 155.883 4.217,154.128 4.590,154.012 4.775 C 153.895 4.961,152.405 5.337,150.700 5.611 C 148.995 5.885,147.600 6.232,147.600 6.381 C 147.600 6.531,146.385 6.890,144.900 7.179 C 143.415 7.468,142.020 7.841,141.800 8.008 C 141.580 8.174,140.365 8.540,139.100 8.819 C 137.835 9.099,136.800 9.459,136.800 9.619 C 136.800 9.780,136.125 10.037,135.300 10.192 C 134.475 10.346,133.035 10.821,132.100 11.246 C 131.165 11.672,129.860 12.128,129.200 12.260 C 128.540 12.392,128.000 12.636,128.000 12.803 C 128.000 12.969,127.190 13.309,126.200 13.558 C 125.210 13.808,124.400 14.160,124.400 14.342 C 124.400 14.524,123.410 14.910,122.200 15.200 C 120.990 15.490,120.000 15.850,120.000 16.000 C 120.000 16.150,119.280 16.510,118.400 16.800 C 117.520 17.090,116.800 17.459,116.800 17.620 C 116.800 17.780,116.176 18.028,115.413 18.171 C 114.650 18.314,113.790 18.667,113.502 18.955 C 113.214 19.243,112.308 19.700,111.489 19.971 C 110.670 20.241,110.000 20.600,110.000 20.768 C 110.000 20.936,109.280 21.289,108.400 21.553 C 107.520 21.816,106.800 22.171,106.800 22.341 C 106.800 22.512,106.170 22.898,105.400 23.200 C 104.630 23.502,104.000 23.867,104.000 24.011 C 104.000 24.154,103.289 24.506,102.421 24.793 C 101.552 25.080,100.757 25.535,100.653 25.806 C 100.549 26.076,100.012 26.411,99.459 26.549 C 98.906 26.688,97.371 27.521,96.046 28.401 C 94.722 29.280,93.444 30.000,93.207 30.000 C 92.969 30.000,92.683 30.239,92.571 30.532 C 92.459 30.824,91.744 31.308,90.983 31.607 C 90.223 31.905,89.600 32.300,89.600 32.485 C 89.600 32.669,89.150 32.991,88.600 33.200 C 88.050 33.409,87.600 33.731,87.600 33.915 C 87.600 34.100,86.977 34.495,86.217 34.793 C 85.456 35.092,84.741 35.576,84.629 35.868 C 84.517 36.161,84.189 36.400,83.901 36.400 C 83.613 36.400,83.085 36.715,82.728 37.100 C 82.370 37.485,81.413 38.250,80.600 38.800 C 79.787 39.350,78.830 40.115,78.472 40.500 C 78.115 40.885,77.599 41.200,77.325 41.200 C 77.052 41.200,76.635 41.560,76.400 42.000 C 76.165 42.440,75.717 42.800,75.406 42.800 C 75.094 42.800,74.696 43.034,74.520 43.321 C 74.344 43.607,73.391 44.462,72.401 45.221 C 71.412 45.979,70.367 46.915,70.079 47.300 C 69.790 47.685,69.377 48.000,69.160 48.000 C 68.943 48.000,67.799 48.990,66.617 50.200 C 65.436 51.410,64.341 52.400,64.184 52.400 C 63.811 52.400,52.400 63.811,52.400 64.184 C 52.400 64.341,51.410 65.436,50.200 66.617 C 48.990 67.799,48.000 68.943,48.000 69.160 C 48.000 69.377,47.685 69.790,47.300 70.079 C 46.915 70.367,45.979 71.412,45.221 72.401 C 44.462 73.391,43.607 74.344,43.321 74.520 C 43.034 74.696,42.800 75.094,42.800 75.406 C 42.800 75.717,42.440 76.165,42.000 76.400 C 41.560 76.635,41.200 77.052,41.200 77.325 C 41.200 77.599,40.885 78.115,40.500 78.472 C 40.115 78.830,39.350 79.787,38.800 80.600 C 38.250 81.413,37.485 82.370,37.100 82.728 C 36.715 83.085,36.400 83.613,36.400 83.901 C 36.400 84.189,36.161 84.517,35.868 84.629 C 35.576 84.741,35.092 85.456,34.793 86.217 C 34.495 86.977,34.100 87.600,33.915 87.600 C 33.731 87.600,33.409 88.050,33.200 88.600 C 32.991 89.150,32.669 89.600,32.485 89.600 C 32.300 89.600,31.905 90.223,31.607 90.983 C 31.308 91.744,30.824 92.459,30.532 92.571 C 30.239 92.683,30.000 92.969,30.000 93.207 C 30.000 93.444,29.280 94.722,28.401 96.046 C 27.521 97.371,26.688 98.906,26.549 99.459 C 26.411 100.012,26.076 100.549,25.806 100.653 C 25.535 100.757,25.080 101.552,24.793 102.421 C 24.506 103.289,24.154 104.000,24.011 104.000 C 23.867 104.000,23.502 104.630,23.200 105.400 C 22.898 106.170,22.512 106.800,22.341 106.800 C 22.171 106.800,21.816 107.520,21.553 108.400 C 21.289 109.280,20.936 110.000,20.768 110.000 C 20.600 110.000,20.241 110.670,19.971 111.489 C 19.700 112.308,19.243 113.214,18.955 113.502 C 18.667 113.790,18.314 114.650,18.171 115.413 C 18.028 116.176,17.780 116.800,17.620 116.800 C 17.459 116.800,17.090 117.520,16.800 118.400 C 16.510 119.280,16.150 120.000,16.000 120.000 C 15.850 120.000,15.490 120.990,15.200 122.200 C 14.910 123.410,14.524 124.400,14.342 124.400 C 14.160 124.400,13.808 125.210,13.558 126.200 C 13.309 127.190,12.969 128.000,12.803 128.000 C 12.636 128.000,12.392 128.540,12.260 129.200 C 12.128 129.860,11.672 131.165,11.246 132.100 C 10.821 133.035,10.346 134.475,10.192 135.300 C 10.037 136.125,9.780 136.800,9.619 136.800 C 9.459 136.800,9.099 137.835,8.819 139.100 C 8.540 140.365,8.174 141.580,8.008 141.800 C 7.841 142.020,7.468 143.415,7.179 144.900 C 6.890 146.385,6.531 147.600,6.381 147.600 C 6.232 147.600,5.885 148.995,5.611 150.700 C 5.337 152.405,4.961 153.895,4.775 154.012 C 4.590 154.128,4.217 155.883,3.947 157.912 C 3.677 159.940,3.329 161.600,3.173 161.600 C 3.017 161.600,2.678 163.445,2.419 165.700 C 2.160 167.955,1.791 170.160,1.598 170.600 C -0.305 174.949,-0.305 225.051,1.598 229.400 C 1.791 229.840,2.160 232.045,2.419 234.300 C 2.678 236.555,3.017 238.400,3.173 238.400 C 3.329 238.400,3.677 240.060,3.947 242.088 C 4.217 244.117,4.590 245.872,4.775 245.988 C 4.961 246.105,5.337 247.595,5.611 249.300 C 5.885 251.005,6.232 252.400,6.381 252.400 C 6.531 252.400,6.890 253.615,7.179 255.100 C 7.468 256.585,7.841 257.980,8.008 258.200 C 8.174 258.420,8.540 259.635,8.819 260.900 C 9.099 262.165,9.459 263.200,9.619 263.200 C 9.780 263.200,10.037 263.875,10.192 264.700 C 10.346 265.525,10.821 266.965,11.246 267.900 C 11.672 268.835,12.128 270.140,12.260 270.800 C 12.392 271.460,12.636 272.000,12.803 272.000 C 12.969 272.000,13.309 272.810,13.558 273.800 C 13.808 274.790,14.160 275.600,14.342 275.600 C 14.524 275.600,14.910 276.590,15.200 277.800 C 15.490 279.010,15.850 280.000,16.000 280.000 C 16.150 280.000,16.510 280.720,16.800 281.600 C 17.090 282.480,17.459 283.200,17.620 283.200 C 17.780 283.200,18.028 283.824,18.171 284.587 C 18.314 285.350,18.667 286.210,18.955 286.498 C 19.243 286.786,19.700 287.692,19.971 288.511 C 20.241 289.330,20.600 290.000,20.768 290.000 C 20.936 290.000,21.289 290.720,21.553 291.600 C 21.816 292.480,22.171 293.200,22.341 293.200 C 22.512 293.200,22.898 293.830,23.200 294.600 C 23.502 295.370,23.867 296.000,24.011 296.000 C 24.154 296.000,24.506 296.711,24.793 297.579 C 25.080 298.448,25.535 299.243,25.806 299.347 C 26.076 299.451,26.411 299.988,26.549 300.541 C 26.688 301.094,27.521 302.629,28.401 303.954 C 29.280 305.278,30.000 306.556,30.000 306.793 C 30.000 307.031,30.239 307.317,30.532 307.429 C 30.824 307.541,31.308 308.256,31.607 309.017 C 31.905 309.777,32.300 310.400,32.485 310.400 C 32.669 310.400,32.991 310.850,33.200 311.400 C 33.409 311.950,33.731 312.400,33.915 312.400 C 34.100 312.400,34.495 313.023,34.793 313.783 C 35.092 314.544,35.576 315.259,35.868 315.371 C 36.161 315.483,36.400 315.811,36.400 316.099 C 36.400 316.387,36.715 316.915,37.100 317.272 C 37.485 317.630,38.250 318.587,38.800 319.400 C 39.350 320.213,40.115 321.170,40.500 321.528 C 40.885 321.885,41.200 322.348,41.200 322.555 C 41.200 322.763,41.467 323.218,41.792 323.566 C 43.133 325.000,44.557 326.681,45.548 328.000 C 46.126 328.770,46.915 329.635,47.300 329.923 C 47.685 330.210,48.000 330.623,48.000 330.840 C 48.000 331.057,48.990 332.201,50.200 333.383 C 51.410 334.564,52.400 335.659,52.400 335.816 C 52.400 336.189,63.811 347.600,64.184 347.600 C 64.341 347.600,65.436 348.590,66.617 349.800 C 67.799 351.010,68.943 352.000,69.160 352.000 C 69.377 352.000,69.790 352.315,70.079 352.700 C 70.367 353.085,71.412 354.021,72.401 354.779 C 73.391 355.538,74.344 356.393,74.520 356.679 C 74.696 356.966,75.094 357.200,75.406 357.200 C 75.717 357.200,76.165 357.560,76.400 358.000 C 76.635 358.440,77.052 358.800,77.325 358.800 C 77.599 358.800,78.115 359.115,78.472 359.500 C 78.830 359.885,79.787 360.650,80.600 361.200 C 81.413 361.750,82.370 362.515,82.728 362.900 C 83.085 363.285,83.613 363.600,83.901 363.600 C 84.189 363.600,84.517 363.839,84.629 364.132 C 84.741 364.424,85.456 364.908,86.217 365.207 C 86.977 365.505,87.600 365.900,87.600 366.085 C 87.600 366.269,88.050 366.591,88.600 366.800 C 89.150 367.009,89.600 367.331,89.600 367.515 C 89.600 367.700,90.230 368.098,91.000 368.400 C 91.770 368.702,92.400 369.101,92.400 369.287 C 92.400 369.473,92.715 369.742,93.100 369.886 C 93.763 370.132,94.453 370.557,97.160 372.382 C 97.798 372.813,98.775 373.279,99.331 373.418 C 99.887 373.558,100.426 373.891,100.529 374.158 C 100.631 374.425,101.454 374.888,102.357 375.186 C 103.261 375.484,104.000 375.846,104.000 375.989 C 104.000 376.133,104.630 376.498,105.400 376.800 C 106.170 377.102,106.800 377.488,106.800 377.659 C 106.800 377.829,107.520 378.184,108.400 378.447 C 109.280 378.711,110.000 379.064,110.000 379.232 C 110.000 379.400,110.670 379.759,111.489 380.029 C 112.308 380.300,113.214 380.757,113.502 381.045 C 113.790 381.333,114.650 381.686,115.413 381.829 C 116.176 381.972,116.800 382.220,116.800 382.380 C 116.800 382.541,117.520 382.910,118.400 383.200 C 119.280 383.490,120.000 383.850,120.000 384.000 C 120.000 384.150,120.990 384.510,122.200 384.800 C 123.410 385.090,124.400 385.476,124.400 385.658 C 124.400 385.840,125.210 386.192,126.200 386.442 C 127.190 386.691,128.000 387.031,128.000 387.197 C 128.000 387.364,128.540 387.608,129.200 387.740 C 129.860 387.872,131.165 388.328,132.100 388.754 C 133.035 389.179,134.475 389.654,135.300 389.808 C 136.125 389.963,136.800 390.220,136.800 390.381 C 136.800 390.541,137.835 390.901,139.100 391.181 C 140.365 391.460,141.580 391.826,141.800 391.992 C 142.020 392.159,143.415 392.532,144.900 392.821 C 146.385 393.110,147.600 393.469,147.600 393.619 C 147.600 393.768,148.995 394.115,150.700 394.389 C 152.405 394.663,153.895 395.039,154.012 395.225 C 154.128 395.410,155.883 395.783,157.912 396.053 C 159.940 396.323,161.600 396.671,161.600 396.827 C 161.600 396.983,163.445 397.322,165.700 397.581 C 167.955 397.840,170.160 398.209,170.600 398.402 C 172.636 399.293,183.304 399.800,200.000 399.800 C 216.696 399.800,227.364 399.293,229.400 398.402 C 229.840 398.209,232.045 397.840,234.300 397.581 C 236.555 397.322,238.400 396.983,238.400 396.827 C 238.400 396.671,240.060 396.323,242.088 396.053 C 244.117 395.783,245.872 395.410,245.988 395.225 C 246.105 395.039,247.595 394.663,249.300 394.389 C 251.005 394.115,252.400 393.768,252.400 393.619 C 252.400 393.469,253.615 393.110,255.100 392.821 C 256.585 392.532,257.980 392.159,258.200 391.992 C 258.420 391.826,259.635 391.460,260.900 391.181 C 262.165 390.901,263.200 390.541,263.200 390.381 C 263.200 390.220,263.875 389.963,264.700 389.808 C 265.525 389.654,266.965 389.179,267.900 388.754 C 268.835 388.328,270.140 387.872,270.800 387.740 C 271.460 387.608,272.000 387.364,272.000 387.197 C 272.000 387.031,272.810 386.691,273.800 386.442 C 274.790 386.192,275.600 385.840,275.600 385.658 C 275.600 385.476,276.590 385.090,277.800 384.800 C 279.010 384.510,280.000 384.150,280.000 384.000 C 280.000 383.850,280.720 383.490,281.600 383.200 C 282.480 382.910,283.200 382.541,283.200 382.380 C 283.200 382.220,283.824 381.972,284.587 381.829 C 285.350 381.686,286.210 381.333,286.498 381.045 C 286.786 380.757,287.692 380.300,288.511 380.029 C 289.330 379.759,290.000 379.400,290.000 379.232 C 290.000 379.064,290.720 378.711,291.600 378.447 C 292.480 378.184,293.200 377.829,293.200 377.659 C 293.200 377.488,293.830 377.102,294.600 376.800 C 295.370 376.498,296.000 376.133,296.000 375.989 C 296.000 375.846,296.739 375.484,297.643 375.186 C 298.546 374.888,299.369 374.425,299.471 374.158 C 299.574 373.891,300.113 373.558,300.669 373.418 C 301.225 373.279,302.202 372.813,302.840 372.382 C 305.547 370.557,306.237 370.132,306.900 369.886 C 307.285 369.742,307.600 369.473,307.600 369.287 C 307.600 369.101,308.230 368.702,309.000 368.400 C 309.770 368.098,310.400 367.700,310.400 367.515 C 310.400 367.331,310.850 367.009,311.400 366.800 C 311.950 366.591,312.400 366.269,312.400 366.085 C 312.400 365.900,313.030 365.502,313.800 365.200 C 314.570 364.898,315.200 364.499,315.200 364.313 C 315.200 364.127,315.515 363.861,315.900 363.722 C 316.285 363.584,316.870 363.230,317.200 362.937 C 318.804 361.512,320.358 360.400,320.744 360.400 C 320.979 360.400,321.365 360.040,321.600 359.600 C 321.835 359.160,322.232 358.800,322.481 358.800 C 322.729 358.800,323.218 358.533,323.566 358.208 C 325.000 356.867,326.681 355.443,328.000 354.452 C 328.770 353.874,329.635 353.085,329.923 352.700 C 330.210 352.315,330.623 352.000,330.840 352.000 C 331.057 352.000,332.201 351.010,333.383 349.800 C 334.564 348.590,335.659 347.600,335.816 347.600 C 335.973 347.600,338.689 345.013,341.851 341.851 C 345.013 338.689,347.600 335.973,347.600 335.816 C 347.600 335.659,348.590 334.564,349.800 333.383 C 351.010 332.201,352.000 331.057,352.000 330.840 C 352.000 330.623,352.315 330.210,352.700 329.923 C 353.085 329.635,353.874 328.770,354.452 328.000 C 355.443 326.681,356.867 325.000,358.208 323.566 C 358.533 323.218,358.800 322.729,358.800 322.481 C 358.800 322.232,359.160 321.835,359.600 321.600 C 360.040 321.365,360.400 320.979,360.400 320.744 C 360.400 320.337,361.710 318.535,363.002 317.166 C 363.331 316.818,363.600 316.317,363.600 316.054 C 363.600 315.790,363.839 315.483,364.132 315.371 C 364.424 315.259,364.908 314.544,365.207 313.783 C 365.505 313.023,365.900 312.400,366.085 312.400 C 366.269 312.400,366.591 311.950,366.800 311.400 C 367.009 310.850,367.331 310.400,367.515 310.400 C 367.700 310.400,368.095 309.777,368.393 309.017 C 368.692 308.256,369.176 307.541,369.468 307.429 C 369.761 307.317,370.000 307.032,370.000 306.796 C 370.000 306.561,370.393 305.790,370.874 305.084 C 372.915 302.085,373.177 301.631,373.418 300.669 C 373.558 300.113,373.891 299.574,374.158 299.471 C 374.425 299.369,374.888 298.546,375.186 297.643 C 375.484 296.739,375.846 296.000,375.989 296.000 C 376.133 296.000,376.498 295.370,376.800 294.600 C 377.102 293.830,377.488 293.200,377.659 293.200 C 377.829 293.200,378.184 292.480,378.447 291.600 C 378.711 290.720,379.064 290.000,379.232 290.000 C 379.400 290.000,379.759 289.330,380.029 288.511 C 380.300 287.692,380.757 286.786,381.045 286.498 C 381.333 286.210,381.686 285.350,381.829 284.587 C 381.972 283.824,382.220 283.200,382.380 283.200 C 382.541 283.200,382.910 282.480,383.200 281.600 C 383.490 280.720,383.850 280.000,384.000 280.000 C 384.150 280.000,384.510 279.010,384.800 277.800 C 385.090 276.590,385.476 275.600,385.658 275.600 C 385.840 275.600,386.192 274.790,386.442 273.800 C 386.691 272.810,387.031 272.000,387.197 272.000 C 387.364 272.000,387.608 271.460,387.740 270.800 C 387.872 270.140,388.328 268.835,388.754 267.900 C 389.179 266.965,389.654 265.525,389.808 264.700 C 389.963 263.875,390.220 263.200,390.381 263.200 C 390.541 263.200,390.901 262.165,391.181 260.900 C 391.460 259.635,391.826 258.420,391.992 258.200 C 392.159 257.980,392.532 256.585,392.821 255.100 C 393.110 253.615,393.469 252.400,393.619 252.400 C 393.768 252.400,394.115 251.005,394.389 249.300 C 394.663 247.595,395.039 246.105,395.225 245.988 C 395.410 245.872,395.783 244.117,396.053 242.088 C 396.323 240.060,396.671 238.400,396.827 238.400 C 396.983 238.400,397.322 236.555,397.581 234.300 C 397.840 232.045,398.209 229.840,398.402 229.400 C 400.305 225.051,400.305 174.949,398.402 170.600 C 398.209 170.160,397.840 167.955,397.581 165.700 C 397.322 163.445,396.983 161.600,396.827 161.600 C 396.671 161.600,396.323 159.940,396.053 157.912 C 395.783 155.883,395.410 154.128,395.225 154.012 C 395.039 153.895,394.663 152.405,394.389 150.700 C 394.115 148.995,393.768 147.600,393.619 147.600 C 393.469 147.600,393.110 146.385,392.821 144.900 C 392.532 143.415,392.159 142.020,391.992 141.800 C 391.826 141.580,391.460 140.365,391.181 139.100 C 390.901 137.835,390.541 136.800,390.381 136.800 C 390.220 136.800,389.963 136.125,389.808 135.300 C 389.654 134.475,389.179 133.035,388.754 132.100 C 388.328 131.165,387.872 129.860,387.740 129.200 C 387.608 128.540,387.364 128.000,387.197 128.000 C 387.031 128.000,386.691 127.190,386.442 126.200 C 386.192 125.210,385.840 124.400,385.658 124.400 C 385.476 124.400,385.090 123.410,384.800 122.200 C 384.510 120.990,384.150 120.000,384.000 120.000 C 383.850 120.000,383.490 119.280,383.200 118.400 C 382.910 117.520,382.541 116.800,382.380 116.800 C 382.220 116.800,381.972 116.176,381.829 115.413 C 381.686 114.650,381.333 113.790,381.045 113.502 C 380.757 113.214,380.300 112.308,380.029 111.489 C 379.759 110.670,379.400 110.000,379.232 110.000 C 379.064 110.000,378.711 109.280,378.447 108.400 C 378.184 107.520,377.829 106.800,377.659 106.800 C 377.488 106.800,377.102 106.170,376.800 105.400 C 376.498 104.630,376.133 104.000,375.989 104.000 C 375.846 104.000,375.484 103.261,375.186 102.357 C 374.888 101.454,374.425 100.631,374.158 100.529 C 373.891 100.426,373.558 99.887,373.418 99.331 C 373.279 98.775,372.813 97.798,372.382 97.160 C 371.952 96.522,371.240 95.467,370.800 94.816 C 370.360 94.165,370.000 93.439,370.000 93.204 C 370.000 92.968,369.761 92.683,369.468 92.571 C 369.176 92.459,368.692 91.744,368.393 90.983 C 368.095 90.223,367.700 89.600,367.515 89.600 C 367.331 89.600,367.009 89.150,366.800 88.600 C 366.591 88.050,366.269 87.600,366.085 87.600 C 365.900 87.600,365.505 86.977,365.207 86.217 C 364.908 85.456,364.424 84.741,364.132 84.629 C 363.839 84.517,363.600 84.189,363.600 83.901 C 363.600 83.613,363.285 83.085,362.900 82.728 C 362.515 82.370,361.750 81.413,361.200 80.600 C 360.650 79.787,359.885 78.830,359.500 78.472 C 359.115 78.115,358.800 77.599,358.800 77.325 C 358.800 77.052,358.440 76.635,358.000 76.400 C 357.560 76.165,357.200 75.717,357.200 75.406 C 357.200 75.094,356.966 74.696,356.679 74.520 C 356.393 74.344,355.538 73.391,354.779 72.401 C 354.021 71.412,353.085 70.367,352.700 70.079 C 352.315 69.790,352.000 69.377,352.000 69.160 C 352.000 68.943,351.010 67.799,349.800 66.617 C 348.590 65.436,347.600 64.341,347.600 64.184 C 347.600 63.811,336.189 52.400,335.816 52.400 C 335.659 52.400,334.564 51.410,333.383 50.200 C 332.201 48.990,331.057 48.000,330.840 48.000 C 330.623 48.000,330.210 47.685,329.923 47.300 C 329.635 46.915,328.770 46.126,328.000 45.548 C 326.681 44.557,325.000 43.133,323.566 41.792 C 323.218 41.467,322.763 41.200,322.555 41.200 C 322.348 41.200,321.885 40.885,321.528 40.500 C 321.170 40.115,320.213 39.350,319.400 38.800 C 318.587 38.250,317.630 37.485,317.272 37.100 C 316.915 36.715,316.387 36.400,316.099 36.400 C 315.811 36.400,315.483 36.161,315.371 35.868 C 315.259 35.576,314.544 35.092,313.783 34.793 C 313.023 34.495,312.400 34.100,312.400 33.915 C 312.400 33.731,311.950 33.409,311.400 33.200 C 310.850 32.991,310.400 32.669,310.400 32.485 C 310.400 32.300,309.777 31.905,309.017 31.607 C 308.256 31.308,307.541 30.824,307.429 30.532 C 307.317 30.239,307.031 30.000,306.793 30.000 C 306.556 30.000,305.278 29.280,303.954 28.401 C 302.629 27.521,301.094 26.688,300.541 26.549 C 299.988 26.411,299.451 26.076,299.347 25.806 C 299.243 25.535,298.448 25.080,297.579 24.793 C 296.711 24.506,296.000 24.154,296.000 24.011 C 296.000 23.867,295.370 23.502,294.600 23.200 C 293.830 22.898,293.200 22.512,293.200 22.341 C 293.200 22.171,292.480 21.816,291.600 21.553 C 290.720 21.289,290.000 20.936,290.000 20.768 C 290.000 20.600,289.330 20.241,288.511 19.971 C 287.692 19.700,286.786 19.243,286.498 18.955 C 286.210 18.667,285.350 18.314,284.587 18.171 C 283.824 18.028,283.200 17.780,283.200 17.620 C 283.200 17.459,282.480 17.090,281.600 16.800 C 280.720 16.510,280.000 16.150,280.000 16.000 C 280.000 15.850,279.010 15.490,277.800 15.200 C 276.590 14.910,275.600 14.524,275.600 14.342 C 275.600 14.160,274.790 13.808,273.800 13.558 C 272.810 13.309,272.000 12.969,272.000 12.803 C 272.000 12.636,271.460 12.392,270.800 12.260 C 270.140 12.128,268.835 11.672,267.900 11.246 C 266.965 10.821,265.525 10.346,264.700 10.192 C 263.875 10.037,263.200 9.780,263.200 9.619 C 263.200 9.459,262.165 9.099,260.900 8.819 C 259.635 8.540,258.420 8.174,258.200 8.008 C 257.980 7.841,256.585 7.468,255.100 7.179 C 253.615 6.890,252.400 6.531,252.400 6.381 C 252.400 6.232,251.005 5.885,249.300 5.611 C 247.595 5.337,246.105 4.961,245.988 4.775 C 245.872 4.590,244.117 4.217,242.088 3.947 C 240.060 3.677,238.400 3.329,238.400 3.173 C 238.400 3.017,236.555 2.678,234.300 2.419 C 232.045 2.160,229.840 1.793,229.400 1.603 C 227.099 0.609,190.736 -0.486,184.000 0.237 M187.600 39.233 C 197.311 40.196,204.350 41.395,212.600 43.489 L 215.400 44.200 215.502 76.912 C 215.584 102.891,215.501 109.652,215.102 109.763 C 214.826 109.840,212.890 110.208,210.800 110.582 C 199.528 112.598,190.039 120.332,186.052 130.751 C 184.963 133.596,184.466 135.544,183.689 140.000 L 183.375 141.800 149.587 141.800 L 115.800 141.800 115.698 95.622 C 115.642 70.224,115.738 49.302,115.910 49.130 C 117.680 47.360,140.887 41.311,150.200 40.193 C 151.300 40.060,153.460 39.770,155.000 39.546 C 162.262 38.493,178.566 38.337,187.600 39.233 M221.664 45.968 C 222.839 46.390,225.690 47.402,228.000 48.216 C 269.251 62.754,304.387 95.853,321.769 136.548 C 324.329 142.543,324.926 142.000,315.771 142.000 C 308.530 142.000,307.951 142.053,308.076 142.700 C 308.198 143.335,308.962 143.410,316.263 143.508 C 322.054 143.586,324.421 143.754,324.692 144.108 C 325.298 144.901,327.013 150.120,329.388 158.400 C 335.670 180.302,336.470 216.603,331.082 235.214 L 330.565 237.000 290.216 237.000 L 249.867 237.000 249.584 236.000 C 249.429 235.450,249.099 233.687,248.849 232.083 C 246.801 218.885,235.849 208.138,221.948 205.685 L 217.800 204.953 217.800 190.377 L 217.800 175.800 220.211 175.534 C 235.695 173.826,246.555 162.785,249.458 145.800 L 249.800 143.800 260.581 143.693 C 271.172 143.588,271.969 143.492,271.994 142.306 C 271.997 142.145,267.020 141.965,260.933 141.906 L 249.866 141.800 249.584 140.800 C 249.429 140.250,249.099 138.487,248.849 136.883 C 246.858 124.055,236.166 113.250,222.961 110.719 C 220.563 110.260,218.375 109.825,218.100 109.754 C 217.705 109.652,217.600 102.847,217.600 77.413 L 217.600 45.200 218.564 45.200 C 219.095 45.200,220.490 45.546,221.664 45.968 M113.502 96.222 L 113.400 141.800 108.308 141.912 C 103.740 142.012,103.173 142.104,102.800 142.801 C 102.399 143.550,102.579 143.581,107.892 143.689 L 113.400 143.800 113.600 174.000 C 113.798 203.867,113.809 204.200,114.600 204.200 C 115.391 204.200,115.402 203.867,115.600 174.000 L 115.800 143.800 149.587 143.800 L 183.375 143.800 183.685 145.600 C 186.679 162.994,197.256 173.798,212.989 175.534 L 215.400 175.800 215.505 190.311 C 215.588 201.726,215.502 204.851,215.105 204.962 C 214.827 205.039,212.890 205.408,210.800 205.782 C 199.528 207.798,190.039 215.532,186.052 225.951 C 184.963 228.797,184.465 230.745,183.689 235.200 L 183.375 237.000 165.687 237.104 C 148.364 237.206,148.000 237.225,148.000 238.000 C 148.000 238.775,148.364 238.794,165.687 238.896 L 183.375 239.000 183.685 240.800 C 186.676 258.180,197.268 268.999,212.989 270.734 L 215.400 271.000 215.502 313.709 L 215.604 356.418 214.613 356.795 C 212.357 357.653,202.330 359.701,195.000 360.802 C 186.526 362.074,169.966 362.676,163.200 361.957 C 161.550 361.782,157.959 361.445,155.220 361.209 C 144.944 360.323,130.136 356.965,119.400 353.085 L 115.800 351.784 115.697 327.292 C 115.640 313.821,115.737 302.800,115.912 302.800 C 116.087 302.800,116.904 303.605,117.727 304.590 C 125.513 313.905,141.124 307.410,139.882 295.371 C 138.704 283.956,123.934 279.787,117.175 288.963 C 115.640 291.046,115.623 290.957,115.502 280.600 C 115.403 272.101,115.373 271.800,114.600 271.800 C 113.806 271.800,113.799 272.101,113.698 311.100 C 113.606 346.550,113.534 350.400,112.966 350.400 C 111.269 350.400,100.225 345.184,92.400 340.688 C 59.584 321.829,34.303 291.809,21.138 256.066 C 18.735 249.540,15.912 240.005,16.179 239.311 C 16.336 238.902,22.830 238.800,48.587 238.800 C 80.533 238.800,80.800 238.793,80.800 238.000 C 80.800 237.207,80.533 237.200,48.249 237.200 L 15.697 237.200 15.286 236.100 C 14.739 234.637,13.344 227.046,12.842 222.800 C 12.621 220.930,12.209 217.600,11.926 215.400 C 11.260 210.211,11.245 190.262,11.904 185.400 C 12.173 183.420,12.582 180.180,12.813 178.200 C 14.062 167.503,19.896 145.120,21.751 143.906 C 21.998 143.744,31.611 143.609,43.114 143.606 C 63.903 143.600,64.026 143.595,63.600 142.800 C 63.181 142.016,62.762 142.000,43.010 142.000 C 29.607 142.000,22.762 141.862,22.593 141.588 C 22.262 141.053,27.025 130.344,30.312 124.236 C 47.580 92.138,74.613 67.045,107.763 52.343 C 110.636 51.069,113.125 50.165,113.295 50.335 C 113.465 50.505,113.558 71.154,113.502 96.222 M329.836 239.350 C 330.307 240.578,325.564 255.503,322.200 263.378 C 306.263 300.690,276.564 331.137,239.800 347.854 C 232.593 351.131,220.163 355.600,218.255 355.600 C 217.647 355.600,217.604 352.350,217.698 313.300 L 217.800 271.000 220.211 270.734 C 235.248 269.075,246.828 257.694,249.211 242.232 C 249.445 240.709,249.729 239.314,249.842 239.132 C 250.230 238.504,329.595 238.721,329.836 239.350 " stroke="none" fill="#060504" fill-rule="evenodd"></path><path id="path1" d="M162.395 39.636 C 156.528 39.957,153.865 40.253,146.600 41.388 C 138.653 42.631,127.532 45.522,119.300 48.487 L 116.000 49.676 116.000 95.440 L 116.000 141.205 149.473 141.102 L 182.946 141.000 183.472 137.800 C 185.836 123.418,197.746 111.273,210.948 109.783 C 212.077 109.656,213.405 109.469,213.900 109.368 L 214.800 109.185 214.800 77.021 L 214.800 44.857 212.662 44.235 C 209.437 43.298,205.524 42.459,200.200 41.565 C 187.478 39.428,176.463 38.866,162.395 39.636 M218.278 47.100 C 217.841 49.337,218.055 108.787,218.501 109.063 C 218.738 109.209,220.386 109.546,222.165 109.813 C 236.202 111.916,248.462 124.547,249.818 138.301 L 250.103 141.200 261.019 141.200 C 267.023 141.200,272.177 141.293,272.473 141.407 C 272.799 141.532,273.315 141.048,273.785 140.176 C 277.788 132.744,289.368 129.254,297.741 132.957 C 301.861 134.779,306.800 139.485,306.800 141.588 C 306.800 142.033,306.907 142.053,307.280 141.680 C 307.619 141.341,309.964 141.200,315.280 141.200 C 319.416 141.200,322.800 141.043,322.800 140.852 C 322.800 139.777,316.191 126.022,312.878 120.200 C 294.452 87.824,264.017 62.102,229.000 49.310 C 218.746 45.565,218.585 45.531,218.278 47.100 M108.771 52.551 C 74.806 67.460,47.259 93.223,30.023 126.200 C 28.039 129.997,24.209 138.349,23.467 140.500 C 23.239 141.160,24.334 141.200,42.839 141.200 C 54.909 141.200,62.735 141.351,63.187 141.593 C 63.870 141.959,63.865 141.870,63.101 140.293 C 60.354 134.621,62.436 124.983,67.601 119.462 C 80.748 105.409,104.068 114.424,104.171 133.600 C 104.190 137.199,103.498 140.474,102.439 141.800 C 101.818 142.577,101.823 142.581,102.617 141.913 C 103.269 141.365,104.397 141.204,108.217 141.113 L 113.000 141.000 113.102 96.100 C 113.198 53.521,113.167 51.201,112.502 51.210 C 112.116 51.216,110.437 51.819,108.771 52.551 M307.216 142.646 C 307.207 142.891,307.546 143.532,307.969 144.069 C 310.583 147.392,309.366 157.501,305.789 162.188 C 294.814 176.565,273.320 170.965,270.781 153.067 C 270.345 149.993,270.902 145.449,271.848 144.369 C 272.151 144.021,272.395 143.571,272.388 143.369 C 272.381 143.166,272.192 143.315,271.968 143.700 C 271.596 144.339,270.628 144.400,260.838 144.400 L 250.115 144.400 249.854 147.212 C 248.889 157.595,241.509 167.849,231.424 172.820 C 227.823 174.594,225.828 175.197,220.005 176.271 L 218.210 176.602 218.106 190.287 C 217.987 205.892,217.639 204.512,221.800 204.931 C 235.354 206.296,248.571 219.855,249.866 233.726 L 250.116 236.400 290.034 236.400 C 315.462 236.400,330.040 236.259,330.193 236.011 C 330.567 235.406,331.944 227.999,332.873 221.600 C 333.886 214.610,334.361 192.804,333.643 186.176 C 332.030 171.278,329.779 160.649,325.709 148.700 L 324.244 144.400 316.335 144.400 L 308.426 144.400 307.829 143.300 C 307.501 142.695,307.225 142.401,307.216 142.646 M64.291 143.707 C 64.048 144.341,62.435 144.401,42.914 144.496 L 21.800 144.600 20.704 147.800 C 16.853 159.047,14.368 170.314,12.722 184.000 C 12.129 188.924,12.129 211.871,12.721 216.800 C 13.723 225.144,15.552 235.685,16.091 236.224 C 16.190 236.323,30.731 236.407,48.404 236.410 C 67.495 236.413,80.717 236.565,80.982 236.785 C 81.298 237.047,81.451 236.606,81.508 235.278 C 82.151 220.202,96.529 205.742,111.527 205.084 L 113.400 205.002 113.200 174.801 L 113.000 144.600 107.527 144.489 C 102.742 144.392,102.032 144.291,101.874 143.689 C 101.711 143.068,101.688 143.072,101.646 143.727 C 101.370 148.051,91.761 154.197,84.508 154.689 C 76.668 155.220,66.297 149.746,64.896 144.337 C 64.634 143.328,64.493 143.181,64.291 143.707 M115.905 174.700 L 115.800 205.004 117.600 205.121 C 141.273 206.656,155.248 234.011,143.083 255.000 C 136.041 267.150,120.434 273.607,106.351 270.197 C 92.959 266.954,81.974 253.946,81.526 240.800 L 81.478 239.400 49.133 239.505 L 16.787 239.609 17.034 240.705 C 24.497 273.858,46.619 306.584,77.645 330.369 C 86.804 337.390,112.063 351.116,113.009 349.585 C 113.121 349.404,113.201 335.968,113.186 319.728 C 113.172 303.488,113.169 285.925,113.180 280.700 L 113.200 271.200 114.600 271.200 L 116.000 271.200 116.000 280.126 L 116.000 289.053 118.041 287.086 C 126.763 278.679,140.200 284.448,140.200 296.600 C 140.200 308.613,126.325 314.262,117.789 305.726 L 115.994 303.930 116.097 327.637 L 116.200 351.343 120.800 352.912 C 148.642 362.408,184.250 364.299,208.800 357.586 C 209.570 357.375,211.190 356.966,212.400 356.676 L 214.600 356.150 214.702 313.921 L 214.804 271.693 211.549 271.217 C 197.436 269.153,186.030 257.958,183.615 243.800 L 182.933 239.800 165.367 239.600 L 147.800 239.400 147.800 238.000 L 147.800 236.600 165.165 236.515 C 174.715 236.469,182.651 236.289,182.800 236.115 C 182.949 235.942,183.274 234.430,183.522 232.755 C 185.568 218.929,197.882 206.481,211.000 204.978 C 212.100 204.851,213.405 204.667,213.900 204.567 L 214.800 204.385 214.800 190.392 C 214.800 182.697,214.665 176.399,214.500 176.398 C 200.317 176.327,186.211 163.628,183.622 148.600 L 182.933 144.600 149.471 144.498 L 116.010 144.395 115.905 174.700 M249.855 242.400 C 248.569 256.238,236.713 268.556,222.292 271.038 C 220.262 271.388,218.510 271.762,218.400 271.870 C 218.064 272.200,217.964 345.478,218.293 350.472 L 218.600 355.144 224.800 353.032 C 265.346 339.218,298.415 310.318,317.290 272.200 C 318.815 269.120,320.214 266.310,320.400 265.956 C 321.141 264.540,325.173 253.991,326.193 250.800 C 327.850 245.618,329.200 240.855,329.200 240.194 C 329.200 239.673,324.361 239.600,289.657 239.600 L 250.115 239.600 249.855 242.400 M273.919 251.768 C 288.687 254.936,295.003 272.074,285.601 283.468 C 273.679 297.915,251.000 289.854,251.000 271.170 L 251.000 266.140 252.693 262.770 C 255.940 256.309,261.231 252.397,267.800 251.600 C 271.262 251.181,271.167 251.178,273.919 251.768 M197.640 274.651 C 205.903 277.903,208.165 289.302,201.814 295.686 C 194.461 303.077,181.656 299.050,180.042 288.838 C 178.426 278.617,188.035 270.871,197.640 274.651 " stroke="none" fill="#eecf8d" fill-rule="evenodd"></path><path id="path2" d="M81.000 112.663 C 67.136 114.404,57.722 129.648,63.478 141.034 C 64.135 142.335,64.798 143.905,64.950 144.521 C 65.760 147.812,72.711 152.853,78.308 154.208 C 87.493 156.432,99.981 150.679,101.768 143.400 C 101.930 142.740,102.291 141.930,102.570 141.600 C 104.320 139.534,104.701 131.993,103.290 127.383 C 100.428 118.036,90.487 111.471,81.000 112.663 M286.238 131.623 C 281.208 132.465,274.546 137.586,272.999 141.800 C 272.595 142.900,272.046 144.070,271.780 144.400 C 269.547 147.164,270.566 156.473,273.623 161.236 C 283.480 176.597,306.898 171.359,309.206 153.277 C 309.581 150.340,308.998 145.292,308.178 144.380 C 307.872 144.039,307.351 142.995,307.021 142.061 C 304.470 134.830,295.121 130.135,286.238 131.623 M111.000 205.091 C 97.705 207.038,88.316 214.319,83.523 226.400 C 76.402 244.345,87.497 265.631,106.351 270.197 C 134.631 277.044,157.111 247.749,143.472 221.822 C 137.760 210.964,122.960 203.339,111.000 205.091 M267.800 251.600 C 261.231 252.397,255.940 256.309,252.693 262.770 L 251.000 266.140 251.000 271.170 C 251.000 289.854,273.679 297.915,285.601 283.468 C 295.003 272.074,288.687 254.936,273.919 251.768 C 271.167 251.178,271.262 251.181,267.800 251.600 M189.494 274.011 C 177.272 277.089,176.431 294.320,188.291 298.646 C 199.278 302.653,209.298 291.301,204.098 280.738 C 201.498 275.458,195.224 272.568,189.494 274.011 " stroke="none" fill="#fbfbf9" fill-rule="evenodd"></path><path id="path3" d="M168.433 38.953 C 168.525 39.037,172.380 39.192,177.000 39.299 C 182.514 39.426,183.888 39.392,181.000 39.199 C 176.098 38.872,168.175 38.716,168.433 38.953 M162.313 39.495 C 163.476 39.576,165.276 39.576,166.313 39.493 C 167.351 39.411,166.400 39.345,164.200 39.346 C 162.000 39.347,161.151 39.414,162.313 39.495 M156.500 39.887 C 157.105 39.978,158.095 39.978,158.700 39.887 C 159.305 39.795,158.810 39.720,157.600 39.720 C 156.390 39.720,155.895 39.795,156.500 39.887 M187.300 39.887 C 187.905 39.978,188.895 39.978,189.500 39.887 C 190.105 39.795,189.610 39.720,188.400 39.720 C 187.190 39.720,186.695 39.795,187.300 39.887 M195.669 40.772 C 196.257 40.960,197.877 41.215,199.269 41.339 C 201.189 41.509,201.414 41.483,200.200 41.231 C 197.625 40.696,194.419 40.371,195.669 40.772 M145.600 41.200 C 143.601 41.621,145.652 41.638,148.000 41.220 C 149.624 40.932,149.663 40.900,148.400 40.903 C 147.630 40.904,146.370 41.038,145.600 41.200 M137.600 42.800 C 136.256 43.231,137.708 43.231,139.400 42.800 C 140.478 42.526,140.498 42.494,139.600 42.487 C 139.050 42.483,138.150 42.624,137.600 42.800 M206.600 42.800 C 208.292 43.231,209.744 43.231,208.400 42.800 C 207.850 42.624,206.950 42.483,206.400 42.487 C 205.502 42.494,205.522 42.526,206.600 42.800 M132.000 44.200 C 131.010 44.487,130.560 44.725,131.000 44.730 C 131.440 44.735,132.520 44.501,133.400 44.211 C 135.471 43.529,134.349 43.520,132.000 44.200 M212.900 44.239 L 214.800 44.846 214.800 76.990 C 214.800 102.330,214.694 109.176,214.300 109.335 C 214.001 109.456,214.082 109.550,214.500 109.568 C 215.161 109.598,215.200 107.803,215.200 77.214 C 215.200 41.040,215.480 44.373,212.400 43.863 C 211.330 43.686,211.448 43.774,212.900 44.239 M126.400 45.800 C 125.630 46.097,125.270 46.339,125.600 46.339 C 125.930 46.339,126.830 46.097,127.600 45.800 C 128.370 45.503,128.730 45.261,128.400 45.261 C 128.070 45.261,127.170 45.503,126.400 45.800 M218.054 46.700 C 218.099 47.606,218.139 47.645,218.279 46.925 C 218.373 46.443,218.753 45.969,219.125 45.871 C 219.603 45.745,219.538 45.679,218.900 45.646 C 218.162 45.608,218.010 45.797,218.054 46.700 M121.400 47.386 C 119.855 48.093,120.574 48.103,122.400 47.400 C 123.170 47.103,123.530 46.855,123.200 46.848 C 122.870 46.842,122.060 47.083,121.400 47.386 M223.800 47.355 C 224.460 47.655,225.450 48.011,226.000 48.146 C 226.803 48.343,226.764 48.284,225.800 47.845 C 225.140 47.545,224.150 47.189,223.600 47.054 C 222.797 46.857,222.836 46.916,223.800 47.355 M117.000 49.014 C 116.000 49.496,115.966 49.551,116.800 49.348 C 117.933 49.071,119.207 48.421,118.600 48.430 C 118.380 48.433,117.660 48.696,117.000 49.014 M218.109 50.000 C 218.109 50.990,218.187 51.395,218.282 50.900 C 218.378 50.405,218.378 49.595,218.282 49.100 C 218.187 48.605,218.109 49.010,218.109 50.000 M228.200 48.955 C 228.860 49.255,229.850 49.611,230.400 49.746 C 231.203 49.943,231.164 49.884,230.200 49.445 C 229.540 49.145,228.550 48.789,228.000 48.654 C 227.197 48.457,227.236 48.516,228.200 48.955 M115.701 51.400 C 115.705 52.280,115.787 52.593,115.883 52.095 C 115.979 51.598,115.975 50.878,115.875 50.495 C 115.775 50.113,115.696 50.520,115.701 51.400 M232.000 50.333 C 232.330 50.536,233.050 50.824,233.600 50.971 C 234.295 51.157,234.417 51.125,234.000 50.867 C 233.670 50.664,232.950 50.376,232.400 50.229 C 231.705 50.043,231.583 50.075,232.000 50.333 M111.800 51.021 L 110.600 51.567 111.800 51.327 C 113.087 51.070,113.431 50.896,113.167 50.637 C 113.075 50.547,112.460 50.720,111.800 51.021 M239.600 53.600 C 240.370 54.022,241.180 54.366,241.400 54.366 C 241.620 54.366,241.170 54.022,240.400 53.600 C 239.630 53.178,238.820 52.834,238.600 52.834 C 238.380 52.834,238.830 53.178,239.600 53.600 M104.800 54.000 C 104.030 54.422,103.580 54.766,103.800 54.766 C 104.020 54.766,104.830 54.422,105.600 54.000 C 106.370 53.578,106.820 53.234,106.600 53.234 C 106.380 53.234,105.570 53.578,104.800 54.000 M115.793 97.200 C 115.793 121.290,115.841 131.145,115.900 119.100 C 115.959 107.055,115.959 87.345,115.900 75.300 C 115.841 63.255,115.793 73.110,115.793 97.200 M99.500 56.625 C 97.575 57.606,96.000 58.498,96.000 58.608 C 96.000 58.718,97.620 57.994,99.600 57.000 C 101.580 56.006,103.200 55.104,103.200 54.996 C 103.200 54.726,103.387 54.643,99.500 56.625 M93.500 59.829 C 92.005 60.640,92.096 60.978,93.600 60.200 C 94.260 59.859,94.800 59.494,94.800 59.390 C 94.800 59.132,94.757 59.147,93.500 59.829 M252.000 59.779 C 252.000 59.889,252.540 60.259,253.200 60.600 C 253.860 60.941,254.400 61.131,254.400 61.021 C 254.400 60.911,253.860 60.541,253.200 60.200 C 252.540 59.859,252.000 59.669,252.000 59.779 M88.500 62.796 C 87.785 63.232,87.200 63.675,87.200 63.781 C 87.200 63.886,87.830 63.601,88.600 63.147 C 89.370 62.693,90.000 62.249,90.000 62.160 C 90.000 61.905,89.874 61.958,88.500 62.796 M257.000 62.672 C 257.588 63.260,265.600 68.413,265.600 68.203 C 265.600 67.997,260.561 64.598,258.200 63.211 C 257.320 62.695,256.780 62.452,257.000 62.672 M85.300 64.846 C 83.937 65.719,83.495 66.306,84.700 65.643 C 85.618 65.139,87.056 64.027,86.800 64.019 C 86.690 64.016,86.015 64.388,85.300 64.846 M79.400 68.832 C 77.027 70.626,76.708 71.132,78.933 69.572 C 80.614 68.394,81.529 67.575,81.124 67.611 C 81.056 67.617,80.280 68.167,79.400 68.832 M268.800 70.520 C 268.800 70.626,270.430 72.001,272.422 73.574 C 274.415 75.148,277.430 77.632,279.122 79.093 C 280.815 80.555,281.841 81.339,281.401 80.835 C 279.951 79.171,268.800 70.044,268.800 70.520 M71.328 75.005 C 69.309 76.644,67.535 78.181,67.387 78.421 C 67.239 78.661,68.936 77.380,71.159 75.575 C 74.692 72.705,75.513 71.963,75.100 72.012 C 75.045 72.018,73.348 73.365,71.328 75.005 M64.386 81.100 L 62.200 83.400 64.500 81.214 C 66.637 79.182,66.983 78.800,66.686 78.800 C 66.624 78.800,65.589 79.835,64.386 81.100 M287.008 86.400 C 289.644 89.150,291.882 91.348,291.982 91.284 C 292.083 91.221,289.926 88.971,287.190 86.284 L 282.216 81.400 287.008 86.400 M56.878 88.300 C 54.248 91.105,51.511 94.120,50.797 95.000 L 49.498 96.600 51.007 95.000 C 57.829 87.766,62.029 83.200,61.861 83.200 C 61.751 83.200,59.509 85.495,56.878 88.300 M295.601 95.700 C 297.429 97.845,299.000 99.600,299.091 99.600 C 299.361 99.600,294.524 93.853,293.355 92.786 C 292.761 92.244,293.772 93.555,295.601 95.700 M46.959 99.700 C 45.207 101.721,44.687 102.400,44.890 102.400 C 45.007 102.400,45.767 101.590,46.579 100.600 C 48.081 98.766,48.379 98.063,46.959 99.700 M300.400 101.600 C 301.097 102.480,301.757 103.200,301.867 103.200 C 301.977 103.200,301.497 102.480,300.800 101.600 C 300.103 100.720,299.443 100.000,299.333 100.000 C 299.223 100.000,299.703 100.720,300.400 101.600 M218.128 104.800 C 218.128 106.230,218.201 106.815,218.289 106.100 C 218.378 105.385,218.378 104.215,218.289 103.500 C 218.201 102.785,218.128 103.370,218.128 104.800 M42.893 104.900 C 40.376 108.349,39.535 109.600,39.734 109.600 C 39.837 109.600,41.017 108.070,42.354 106.200 C 43.692 104.330,44.705 102.800,44.606 102.800 C 44.506 102.800,43.736 103.745,42.893 104.900 M304.000 106.400 C 304.470 107.060,304.944 107.600,305.054 107.600 C 305.164 107.600,304.870 107.060,304.400 106.400 C 303.930 105.740,303.456 105.200,303.346 105.200 C 303.236 105.200,303.530 105.740,304.000 106.400 M210.900 109.876 C 211.285 109.976,211.915 109.976,212.300 109.876 C 212.685 109.775,212.370 109.693,211.600 109.693 C 210.830 109.693,210.515 109.775,210.900 109.876 M207.800 110.400 C 206.781 110.838,207.832 110.838,209.200 110.400 C 210.004 110.143,210.043 110.077,209.400 110.068 C 208.960 110.062,208.240 110.211,207.800 110.400 M224.000 110.400 C 225.368 110.838,226.419 110.838,225.400 110.400 C 224.960 110.211,224.240 110.062,223.800 110.068 C 223.157 110.077,223.196 110.143,224.000 110.400 M307.785 111.900 C 308.402 112.835,308.983 113.600,309.076 113.600 C 309.364 113.600,307.833 111.166,307.232 110.669 C 306.920 110.411,307.168 110.965,307.785 111.900 M37.521 112.700 C 35.351 116.003,35.117 116.400,35.342 116.400 C 35.533 116.400,37.107 114.091,38.546 111.700 C 39.260 110.514,38.417 111.336,37.521 112.700 M201.500 112.826 C 200.235 113.479,199.200 114.103,199.200 114.212 C 199.200 114.391,203.960 112.125,204.367 111.753 C 204.890 111.273,203.498 111.794,201.500 112.826 M229.633 112.152 C 230.041 112.524,234.000 114.393,234.000 114.213 C 234.000 113.988,230.180 112.000,229.747 112.000 C 229.593 112.000,229.542 112.068,229.633 112.152 M309.549 114.600 C 309.765 115.040,310.234 115.760,310.593 116.200 L 311.244 117.000 310.851 116.200 C 310.635 115.760,310.166 115.040,309.807 114.600 L 309.156 113.800 309.549 114.600 M194.687 117.430 C 193.209 118.657,192.000 119.748,192.000 119.854 C 192.000 119.960,193.260 119.011,194.800 117.744 C 197.350 115.646,197.821 115.200,197.487 115.200 C 197.425 115.200,196.165 116.204,194.687 117.430 M238.287 117.609 C 238.995 118.351,239.642 118.878,239.725 118.779 C 239.808 118.681,239.229 118.073,238.438 117.429 L 237.000 116.258 238.287 117.609 M311.800 118.400 C 312.141 119.060,312.511 119.600,312.621 119.600 C 312.731 119.600,312.541 119.060,312.200 118.400 C 311.859 117.740,311.489 117.200,311.379 117.200 C 311.269 117.200,311.459 117.740,311.800 118.400 M33.908 118.500 C 33.033 119.849,32.248 121.456,32.687 121.000 C 33.248 120.417,34.898 117.600,34.679 117.600 C 34.576 117.600,34.229 118.005,33.908 118.500 M241.381 120.746 C 242.251 121.656,243.032 122.400,243.117 122.400 C 243.434 122.400,241.075 119.786,240.450 119.446 C 240.093 119.252,240.512 119.837,241.381 120.746 M313.400 121.200 C 313.741 121.860,314.111 122.400,314.221 122.400 C 314.331 122.400,314.141 121.860,313.800 121.200 C 313.459 120.540,313.089 120.000,312.979 120.000 C 312.869 120.000,313.059 120.540,313.400 121.200 M31.000 123.600 C 30.659 124.260,30.469 124.800,30.579 124.800 C 30.689 124.800,31.059 124.260,31.400 123.600 C 31.741 122.940,31.931 122.400,31.821 122.400 C 31.711 122.400,31.341 122.940,31.000 123.600 M244.407 124.523 C 245.102 125.581,246.200 127.561,246.847 128.923 C 247.493 130.285,247.907 130.950,247.766 130.400 C 247.387 128.925,245.344 125.177,244.168 123.800 C 243.380 122.878,243.436 123.045,244.407 124.523 M317.286 128.583 C 318.651 131.323,319.831 133.502,319.908 133.425 C 320.085 133.248,315.264 123.600,314.999 123.600 C 314.892 123.600,315.921 125.842,317.286 128.583 M29.578 126.298 C 28.674 128.101,28.687 128.279,29.620 126.883 C 30.104 126.159,30.417 125.483,30.315 125.382 C 30.213 125.280,29.881 125.692,29.578 126.298 M26.272 133.019 C 25.332 134.989,25.464 135.324,26.447 133.462 C 26.893 132.616,27.187 131.854,27.101 131.767 C 27.014 131.681,26.641 132.244,26.272 133.019 M248.429 132.800 C 248.432 132.910,248.696 133.990,249.016 135.200 C 249.567 137.281,249.587 137.304,249.385 135.638 C 249.219 134.272,248.407 131.860,248.429 132.800 M320.034 134.200 C 320.034 134.420,320.378 135.230,320.800 136.000 C 321.222 136.770,321.566 137.220,321.566 137.000 C 321.566 136.780,321.222 135.970,320.800 135.200 C 320.378 134.430,320.034 133.980,320.034 134.200 M24.672 136.619 C 23.732 138.589,23.864 138.924,24.847 137.062 C 25.293 136.216,25.587 135.454,25.501 135.367 C 25.414 135.281,25.041 135.844,24.672 136.619 M183.170 139.400 L 183.000 141.000 149.400 141.203 L 115.800 141.407 149.492 141.503 L 183.185 141.600 183.426 140.641 C 183.558 140.113,183.593 139.258,183.503 138.741 C 183.388 138.078,183.289 138.272,183.170 139.400 M249.701 139.400 C 249.705 140.280,249.787 140.593,249.883 140.095 C 249.979 139.598,249.975 138.878,249.875 138.495 C 249.775 138.113,249.696 138.520,249.701 139.400 M23.246 140.039 C 23.001 140.743,22.800 141.383,22.800 141.460 C 22.800 141.537,31.845 141.557,42.900 141.504 L 63.000 141.408 43.111 141.300 L 23.223 141.193 23.623 140.141 C 23.842 139.562,23.948 139.015,23.857 138.924 C 23.767 138.833,23.492 139.335,23.246 140.039 M322.800 140.791 C 322.800 141.029,319.791 141.225,315.133 141.291 C 309.309 141.374,307.441 141.523,307.363 141.910 C 307.306 142.191,307.351 142.236,307.463 142.010 C 307.592 141.751,310.528 141.600,315.433 141.600 C 322.070 141.600,323.200 141.513,323.200 141.000 C 323.200 140.670,323.110 140.400,323.000 140.400 C 322.890 140.400,322.800 140.576,322.800 140.791 M108.217 141.099 C 103.449 141.226,102.000 141.658,102.000 142.951 C 102.000 143.186,102.280 142.978,102.623 142.489 C 103.209 141.651,103.533 141.600,108.223 141.600 C 111.274 141.600,113.200 141.445,113.200 141.200 C 113.200 140.980,113.155 140.839,113.100 140.886 C 113.045 140.933,110.848 141.029,108.217 141.099 M253.800 141.482 C 263.811 141.765,272.709 141.774,272.539 141.500 C 272.437 141.335,267.278 141.238,261.076 141.284 C 254.874 141.331,251.600 141.420,253.800 141.482 M43.237 143.900 C 22.368 144.007,21.178 144.085,21.212 145.349 C 21.219 145.597,21.408 145.485,21.632 145.100 C 22.012 144.447,23.460 144.400,42.996 144.400 C 56.536 144.400,64.040 144.258,64.200 144.000 C 64.336 143.780,64.392 143.643,64.324 143.696 C 64.256 143.749,54.766 143.841,43.237 143.900 M101.999 144.079 C 102.000 144.232,104.520 144.412,107.601 144.479 C 110.681 144.546,113.201 144.474,113.201 144.321 C 113.200 144.168,110.680 143.988,107.599 143.921 C 104.519 143.854,101.999 143.926,101.999 144.079 M260.800 144.000 L 249.800 144.219 260.676 144.310 C 267.595 144.367,271.643 144.254,271.800 144.000 C 271.936 143.780,271.992 143.641,271.924 143.690 C 271.856 143.740,266.850 143.879,260.800 144.000 M308.348 144.109 C 308.518 144.278,312.244 144.368,316.629 144.308 L 324.600 144.198 316.319 143.999 C 311.765 143.890,308.178 143.939,308.348 144.109 M149.400 144.397 L 183.000 144.600 183.243 146.200 C 183.465 147.657,183.492 147.687,183.543 146.533 C 183.667 143.774,186.679 143.990,149.457 144.097 L 115.800 144.193 149.400 144.397 M115.790 173.000 C 115.789 188.620,115.839 195.068,115.900 187.329 C 115.961 179.591,115.961 166.811,115.900 158.929 C 115.839 151.048,115.790 157.380,115.790 173.000 M249.709 146.400 C 249.709 147.390,249.787 147.795,249.882 147.300 C 249.978 146.805,249.978 145.995,249.882 145.500 C 249.787 145.005,249.709 145.410,249.709 146.400 M324.629 145.600 C 324.776 146.150,325.064 146.870,325.267 147.200 C 325.525 147.617,325.557 147.495,325.371 146.800 C 325.224 146.250,324.936 145.530,324.733 145.200 C 324.475 144.783,324.443 144.905,324.629 145.600 M248.940 150.412 C 248.691 151.616,248.546 152.663,248.617 152.740 C 248.849 152.990,249.651 149.561,249.520 148.882 C 249.451 148.521,249.190 149.209,248.940 150.412 M184.027 150.840 C 183.996 151.577,184.824 154.109,185.029 153.904 C 185.104 153.829,184.915 152.965,184.609 151.984 C 184.304 151.003,184.041 150.488,184.027 150.840 M18.293 154.293 C 17.942 155.555,17.722 156.655,17.804 156.737 C 17.886 156.819,18.250 155.863,18.613 154.613 C 18.977 153.363,19.197 152.264,19.103 152.170 C 19.009 152.076,18.645 153.031,18.293 154.293 M185.600 155.747 C 185.600 156.180,187.588 160.000,187.813 160.000 C 187.923 160.000,187.539 159.055,186.959 157.900 C 185.843 155.679,185.600 155.294,185.600 155.747 M246.282 157.811 C 245.692 159.015,245.294 160.000,245.398 160.000 C 245.667 160.000,247.684 155.951,247.505 155.771 C 247.423 155.689,246.873 156.607,246.282 157.811 M328.056 156.000 C 328.056 156.330,328.211 156.960,328.400 157.400 C 328.617 157.904,328.744 157.978,328.744 157.600 C 328.744 157.270,328.589 156.640,328.400 156.200 C 328.183 155.696,328.056 155.622,328.056 156.000 M16.635 160.235 C 16.267 161.701,16.040 162.974,16.131 163.064 C 16.221 163.155,16.597 162.030,16.965 160.565 C 17.333 159.099,17.560 157.826,17.469 157.736 C 17.379 157.645,17.003 158.770,16.635 160.235 M329.463 161.400 C 329.601 162.280,329.865 163.360,330.050 163.800 C 330.264 164.308,330.295 164.015,330.137 163.000 C 329.999 162.120,329.735 161.040,329.550 160.600 C 329.336 160.092,329.305 160.385,329.463 161.400 M244.221 161.424 C 243.852 161.987,242.539 163.652,241.303 165.124 C 240.067 166.596,239.468 167.440,239.972 167.000 C 240.844 166.238,244.342 161.957,244.957 160.900 C 245.500 159.964,244.895 160.396,244.221 161.424 M191.021 164.569 C 192.661 166.616,196.622 170.070,198.764 171.323 C 200.829 172.530,200.146 171.809,197.700 170.200 C 196.435 169.367,194.059 167.316,192.421 165.643 C 190.299 163.475,189.896 163.167,191.021 164.569 M15.000 167.200 C 14.846 168.110,14.804 168.938,14.907 169.040 C 15.010 169.143,15.213 168.477,15.360 167.560 C 15.507 166.643,15.548 165.815,15.453 165.720 C 15.358 165.624,15.154 166.290,15.000 167.200 M331.074 168.592 C 331.208 169.688,331.465 171.038,331.645 171.592 C 331.850 172.226,331.880 171.860,331.726 170.608 C 331.592 169.512,331.335 168.162,331.155 167.608 C 330.950 166.974,330.920 167.340,331.074 168.592 M237.804 168.395 C 237.408 168.833,236.210 169.752,235.142 170.437 C 232.990 171.818,232.488 172.458,234.447 171.323 C 235.775 170.553,239.162 167.644,238.762 167.616 C 238.631 167.607,238.200 167.958,237.804 168.395 M200.400 172.196 C 200.400 172.470,202.849 173.684,203.032 173.501 C 203.119 173.414,202.562 173.044,201.795 172.678 C 201.028 172.312,200.400 172.095,200.400 172.196 M13.693 174.800 C 13.693 175.570,13.775 175.885,13.876 175.500 C 13.976 175.115,13.976 174.485,13.876 174.100 C 13.775 173.715,13.693 174.030,13.693 174.800 M207.400 175.200 C 207.840 175.389,208.560 175.538,209.000 175.532 C 209.643 175.523,209.604 175.457,208.800 175.200 C 207.432 174.762,206.381 174.762,207.400 175.200 M332.493 176.400 C 332.493 177.170,332.575 177.485,332.676 177.100 C 332.776 176.715,332.776 176.085,332.676 175.700 C 332.575 175.315,332.493 175.630,332.493 176.400 M213.900 176.282 L 214.800 176.456 214.800 190.394 C 214.800 201.171,214.687 204.379,214.300 204.535 C 214.001 204.656,214.082 204.750,214.500 204.768 C 215.154 204.798,215.200 203.860,215.200 190.400 L 215.200 176.000 214.100 176.054 C 213.157 176.101,213.128 176.134,213.900 176.282 M218.000 176.345 C 218.000 176.534,218.450 176.603,219.000 176.498 C 219.550 176.393,220.000 176.238,220.000 176.153 C 220.000 176.069,219.550 176.000,219.000 176.000 C 218.450 176.000,218.000 176.155,218.000 176.345 M13.301 177.800 C 13.305 178.680,13.387 178.993,13.483 178.495 C 13.579 177.998,13.575 177.278,13.475 176.895 C 13.375 176.513,13.296 176.920,13.301 177.800 M332.847 179.433 C 332.873 180.295,333.039 181.540,333.215 182.200 C 333.418 182.956,333.454 182.438,333.315 180.800 C 333.067 177.886,332.775 177.031,332.847 179.433 M12.493 184.400 C 12.493 185.170,12.575 185.485,12.676 185.100 C 12.776 184.715,12.776 184.085,12.676 183.700 C 12.575 183.315,12.493 183.630,12.493 184.400 M12.142 189.800 C 12.141 191.780,12.208 192.640,12.292 191.712 C 12.376 190.784,12.377 189.164,12.295 188.112 C 12.212 187.060,12.143 187.820,12.142 189.800 M334.176 200.600 C 334.176 206.760,334.232 209.224,334.299 206.076 C 334.367 202.927,334.367 197.887,334.299 194.876 C 334.231 191.864,334.176 194.440,334.176 200.600 M11.647 200.033 C 11.673 203.645,11.823 208.400,11.981 210.600 C 12.141 212.825,12.185 209.986,12.079 204.200 C 11.974 198.480,11.824 193.725,11.744 193.633 C 11.665 193.542,11.621 196.422,11.647 200.033 M115.660 203.345 C 115.603 204.819,115.545 204.883,114.421 204.718 C 113.773 204.623,113.333 204.692,113.445 204.872 C 114.323 206.293,116.173 204.826,115.890 202.934 C 115.751 202.009,115.709 202.085,115.660 203.345 M210.900 205.076 C 211.285 205.176,211.915 205.176,212.300 205.076 C 212.685 204.975,212.370 204.893,211.600 204.893 C 210.830 204.893,210.515 204.975,210.900 205.076 M220.900 205.076 C 221.285 205.176,221.915 205.176,222.300 205.076 C 222.685 204.975,222.370 204.893,221.600 204.893 C 220.830 204.893,220.515 204.975,220.900 205.076 M207.800 205.600 C 206.781 206.038,207.832 206.038,209.200 205.600 C 210.004 205.343,210.043 205.277,209.400 205.268 C 208.960 205.262,208.240 205.411,207.800 205.600 M224.000 205.600 C 225.368 206.038,226.419 206.038,225.400 205.600 C 224.960 205.411,224.240 205.262,223.800 205.268 C 223.157 205.277,223.196 205.343,224.000 205.600 M227.600 206.485 C 227.967 206.824,233.200 209.161,233.200 208.986 C 233.200 208.747,229.622 206.970,228.400 206.602 C 227.850 206.436,227.490 206.384,227.600 206.485 M201.900 207.826 C 200.855 208.370,200.000 208.905,200.000 209.014 C 200.000 209.193,203.960 207.323,204.367 206.952 C 204.862 206.501,203.561 206.962,201.900 207.826 M197.395 210.570 C 196.298 211.324,194.590 212.694,193.600 213.614 L 191.800 215.288 194.000 213.508 C 195.210 212.529,196.965 211.225,197.900 210.611 C 199.381 209.638,199.876 209.200,199.495 209.200 C 199.437 209.200,198.492 209.817,197.395 210.570 M233.600 209.324 C 233.600 209.417,234.365 209.998,235.300 210.615 C 236.235 211.232,236.789 211.480,236.531 211.168 C 236.034 210.567,233.600 209.036,233.600 209.324 M238.581 213.123 C 239.451 214.045,240.210 214.800,240.269 214.800 C 240.678 214.800,239.687 213.605,238.465 212.623 L 237.000 211.446 238.581 213.123 M241.114 215.404 C 241.341 215.847,241.948 216.566,242.463 217.002 C 243.367 217.766,243.365 217.752,242.406 216.597 C 240.813 214.679,240.679 214.555,241.114 215.404 M333.293 218.400 C 333.293 219.170,333.375 219.485,333.476 219.100 C 333.576 218.715,333.576 218.085,333.476 217.700 C 333.375 217.315,333.293 217.630,333.293 218.400 M244.185 219.500 C 244.802 220.435,245.383 221.200,245.476 221.200 C 245.764 221.200,244.233 218.766,243.632 218.269 C 243.320 218.011,243.568 218.565,244.185 219.500 M332.909 221.600 C 332.909 222.590,332.987 222.995,333.082 222.500 C 333.178 222.005,333.178 221.195,333.082 220.700 C 332.987 220.205,332.909 220.610,332.909 221.600 M13.301 223.000 C 13.305 223.880,13.387 224.193,13.483 223.695 C 13.579 223.198,13.575 222.478,13.475 222.095 C 13.375 221.713,13.296 222.120,13.301 223.000 M247.267 225.220 C 247.501 225.892,247.767 226.367,247.857 226.276 C 248.056 226.078,247.301 224.000,247.031 224.000 C 246.927 224.000,247.033 224.549,247.267 225.220 M13.693 226.000 C 13.693 226.770,13.775 227.085,13.876 226.700 C 13.976 226.315,13.976 225.685,13.876 225.300 C 13.775 224.915,13.693 225.230,13.693 226.000 M249.062 230.600 C 249.196 231.480,249.372 232.275,249.453 232.367 C 249.756 232.710,249.529 230.568,249.181 229.800 C 248.929 229.242,248.893 229.485,249.062 230.600 M15.050 233.400 C 15.478 237.134,13.546 236.813,34.914 236.704 L 53.800 236.608 34.907 236.500 L 16.013 236.392 15.805 235.496 C 14.859 231.426,14.807 231.282,15.050 233.400 M249.709 234.400 C 249.709 235.390,249.787 235.795,249.882 235.300 C 249.978 234.805,249.978 233.995,249.882 233.500 C 249.787 233.005,249.709 233.410,249.709 234.400 M183.254 234.420 C 183.225 235.201,182.984 236.056,182.720 236.320 C 182.355 236.685,182.353 236.800,182.712 236.800 C 183.296 236.800,183.728 235.206,183.488 233.941 C 183.361 233.272,183.293 233.411,183.254 234.420 M330.289 235.582 C 330.077 236.393,329.925 236.397,289.938 236.500 L 249.800 236.604 290.073 236.702 L 330.346 236.800 330.610 235.970 C 330.754 235.513,330.789 235.056,330.687 234.954 C 330.585 234.852,330.406 235.135,330.289 235.582 M67.800 236.792 L 81.000 237.000 81.127 238.100 L 81.253 239.200 49.050 239.200 C 31.339 239.200,16.754 239.350,16.641 239.534 C 16.527 239.718,16.607 240.393,16.817 241.034 L 17.201 242.200 17.011 240.902 L 16.821 239.605 49.110 239.502 L 81.400 239.400 81.531 238.478 C 81.824 236.406,81.732 236.393,67.651 236.492 L 54.600 236.584 67.800 236.792 M147.852 236.716 C 147.744 236.890,148.318 236.967,149.128 236.887 C 151.342 236.669,151.605 236.467,149.724 236.432 C 148.802 236.414,147.959 236.542,147.852 236.716 M159.126 236.700 C 163.376 236.764,170.216 236.764,174.326 236.699 C 178.437 236.634,174.960 236.581,166.600 236.581 C 158.240 236.582,154.877 236.635,159.126 236.700 M147.935 239.296 C 148.098 239.458,156.054 239.638,165.616 239.696 L 183.000 239.800 183.243 241.400 L 183.486 243.000 183.537 241.600 C 183.627 239.103,184.527 239.226,165.301 239.108 C 155.587 239.049,147.773 239.133,147.935 239.296 M289.472 239.500 L 329.145 239.604 329.318 240.502 C 329.466 241.270,329.499 241.240,329.546 240.300 L 329.600 239.200 289.700 239.298 L 249.800 239.396 289.472 239.500 M249.709 241.600 C 249.709 242.590,249.787 242.995,249.882 242.500 C 249.978 242.005,249.978 241.195,249.882 240.700 C 249.787 240.205,249.709 240.610,249.709 241.600 M328.033 244.633 C 327.775 245.659,327.639 246.572,327.731 246.664 C 327.822 246.756,328.109 245.992,328.367 244.967 C 328.625 243.941,328.761 243.028,328.669 242.936 C 328.578 242.844,328.291 243.608,328.033 244.633 M248.940 245.612 C 248.691 246.816,248.546 247.863,248.617 247.940 C 248.849 248.190,249.651 244.761,249.520 244.082 C 249.451 243.721,249.190 244.409,248.940 245.612 M184.022 246.029 C 183.996 246.767,185.226 250.507,185.428 250.306 C 185.503 250.230,185.223 249.095,184.804 247.784 C 184.386 246.473,184.033 245.683,184.022 246.029 M185.600 250.947 C 185.600 251.380,187.588 255.200,187.813 255.200 C 187.923 255.200,187.539 254.255,186.959 253.100 C 185.843 250.879,185.600 250.494,185.600 250.947 M247.200 251.043 C 247.200 251.250,246.383 252.855,245.383 254.610 C 244.384 256.364,243.829 257.530,244.149 257.200 C 245.063 256.258,247.723 251.189,247.447 250.914 C 247.311 250.778,247.200 250.836,247.200 251.043 M323.244 258.844 C 322.998 259.551,322.866 260.200,322.952 260.285 C 323.038 260.371,323.309 259.862,323.556 259.156 C 323.802 258.449,323.934 257.800,323.848 257.715 C 323.762 257.629,323.491 258.138,323.244 258.844 M190.840 259.604 C 192.405 261.556,196.764 265.366,198.756 266.523 C 200.818 267.720,200.157 267.016,197.700 265.399 C 196.435 264.566,194.050 262.518,192.400 260.846 C 190.613 259.036,189.982 258.534,190.840 259.604 M241.183 260.500 C 240.007 261.875,239.548 262.550,240.162 262.000 C 241.335 260.950,243.792 258.000,243.494 258.000 C 243.398 258.000,242.358 259.125,241.183 260.500 M322.065 261.817 C 321.395 263.288,321.523 263.602,322.247 262.265 C 322.586 261.640,322.788 261.054,322.696 260.963 C 322.605 260.871,322.321 261.256,322.065 261.817 M24.028 262.600 C 24.028 262.820,24.286 263.450,24.600 264.000 C 24.914 264.550,25.172 264.820,25.172 264.600 C 25.172 264.380,24.914 263.750,24.600 263.200 C 24.286 262.650,24.028 262.380,24.028 262.600 M319.800 267.061 C 319.464 267.865,319.282 268.615,319.395 268.728 C 319.508 268.841,319.600 268.835,319.600 268.716 C 319.600 268.596,319.872 267.846,320.205 267.049 C 320.538 266.252,320.721 265.600,320.611 265.600 C 320.501 265.600,320.136 266.258,319.800 267.061 M25.628 266.200 C 25.628 266.420,25.886 267.050,26.200 267.600 C 26.514 268.150,26.772 268.420,26.772 268.200 C 26.772 267.980,26.514 267.350,26.200 266.800 C 25.886 266.250,25.628 265.980,25.628 266.200 M207.400 270.400 C 207.840 270.589,208.560 270.738,209.000 270.732 C 209.643 270.723,209.604 270.657,208.800 270.400 C 207.432 269.962,206.381 269.962,207.400 270.400 M27.609 270.544 C 27.597 271.010,30.084 275.650,30.254 275.479 C 30.329 275.405,29.766 274.186,29.004 272.772 C 28.242 271.357,27.614 270.355,27.609 270.544 M213.904 271.488 L 214.807 271.654 214.704 314.027 C 214.647 337.332,214.736 356.400,214.902 356.400 C 215.068 356.400,215.158 337.275,215.102 313.900 L 215.000 271.400 214.000 271.361 C 213.123 271.328,213.111 271.343,213.904 271.488 M218.046 272.100 C 218.079 272.738,218.145 272.803,218.271 272.325 C 218.369 271.953,218.843 271.573,219.325 271.479 C 220.045 271.339,220.006 271.299,219.100 271.254 C 218.197 271.210,218.008 271.362,218.046 272.100 M115.740 277.600 C 115.740 279.470,115.809 280.235,115.893 279.300 C 115.977 278.365,115.977 276.835,115.893 275.900 C 115.809 274.965,115.740 275.730,115.740 277.600 M315.200 276.400 C 314.751 277.280,314.474 278.000,314.584 278.000 C 314.694 278.000,315.151 277.280,315.600 276.400 C 316.049 275.520,316.326 274.800,316.216 274.800 C 316.106 274.800,315.649 275.520,315.200 276.400 M31.200 277.600 C 31.649 278.480,32.106 279.200,32.216 279.200 C 32.326 279.200,32.049 278.480,31.600 277.600 C 31.151 276.720,30.694 276.000,30.584 276.000 C 30.474 276.000,30.751 276.720,31.200 277.600 M313.200 280.000 C 312.751 280.880,312.474 281.600,312.584 281.600 C 312.694 281.600,313.151 280.880,313.600 280.000 C 314.049 279.120,314.326 278.400,314.216 278.400 C 314.106 278.400,313.649 279.120,313.200 280.000 M33.000 280.800 C 33.341 281.460,33.711 282.000,33.821 282.000 C 33.931 282.000,33.741 281.460,33.400 280.800 C 33.059 280.140,32.689 279.600,32.579 279.600 C 32.469 279.600,32.659 280.140,33.000 280.800 M311.552 282.900 C 311.290 283.395,310.815 284.250,310.496 284.800 C 309.939 285.759,309.943 285.767,310.588 285.000 C 311.386 284.052,312.505 282.000,312.224 282.000 C 312.116 282.000,311.814 282.405,311.552 282.900 M125.900 283.489 C 126.615 283.578,127.785 283.578,128.500 283.489 C 129.215 283.401,128.630 283.328,127.200 283.328 C 125.770 283.328,125.185 283.401,125.900 283.489 M120.900 284.796 C 119.094 285.897,119.263 286.166,121.100 285.114 C 122.948 284.056,123.023 284.000,122.567 284.001 C 122.365 284.002,121.615 284.360,120.900 284.796 M35.549 285.000 C 35.765 285.440,36.234 286.160,36.593 286.600 L 37.244 287.400 36.851 286.600 C 36.635 286.160,36.166 285.440,35.807 285.000 L 35.156 284.200 35.549 285.000 M134.600 285.657 C 135.260 286.161,136.408 287.209,137.151 287.987 C 138.212 289.097,138.355 289.169,137.821 288.325 C 137.175 287.304,135.304 285.697,134.000 285.042 C 133.670 284.876,133.940 285.153,134.600 285.657 M117.447 287.601 C 116.651 288.482,116.000 289.328,116.000 289.481 C 116.000 289.635,116.135 289.589,116.301 289.380 C 116.467 289.171,117.222 288.325,117.980 287.500 C 118.737 286.675,119.253 286.000,119.125 286.000 C 118.997 286.000,118.242 286.721,117.447 287.601 M306.483 290.823 C 304.678 293.476,303.364 295.546,303.562 295.424 C 304.108 295.086,310.224 286.000,309.905 286.000 C 309.827 286.000,308.287 288.170,306.483 290.823 M37.412 288.000 C 38.681 290.312,46.456 300.940,47.225 301.416 C 47.459 301.560,46.499 300.176,45.092 298.339 C 43.685 296.503,41.488 293.470,40.210 291.600 C 37.987 288.348,36.679 286.664,37.412 288.000 M299.263 300.629 C 297.239 303.175,295.777 305.138,296.014 304.991 C 296.251 304.845,297.814 302.987,299.488 300.863 C 303.440 295.849,303.327 296.000,303.120 296.000 C 303.022 296.000,301.286 298.083,299.263 300.629 M139.069 301.786 C 138.667 302.760,137.598 304.422,136.693 305.479 C 135.133 307.301,135.122 307.331,136.480 306.064 C 137.961 304.683,140.159 301.072,139.930 300.397 C 139.859 300.187,139.471 300.811,139.069 301.786 M116.011 303.469 C 116.025 303.904,117.977 306.075,119.020 306.817 L 119.839 307.400 119.020 306.593 C 118.569 306.149,117.705 305.191,117.100 304.463 C 116.495 303.734,116.005 303.287,116.011 303.469 M288.200 312.971 C 284.240 316.999,278.975 321.968,276.500 324.012 C 274.025 326.056,272.000 327.818,272.000 327.926 C 272.000 328.035,272.315 327.858,272.700 327.533 C 273.085 327.209,275.107 325.516,277.192 323.771 C 282.819 319.067,296.585 305.453,295.543 305.624 C 295.464 305.636,292.160 308.943,288.200 312.971 M52.800 308.200 C 53.546 308.970,54.247 309.600,54.357 309.600 C 54.467 309.600,53.946 308.970,53.200 308.200 C 52.454 307.430,51.753 306.800,51.643 306.800 C 51.533 306.800,52.054 307.430,52.800 308.200 M133.400 307.893 C 132.740 308.257,131.390 308.777,130.400 309.050 C 129.178 309.387,128.921 309.553,129.600 309.569 C 130.582 309.592,134.800 307.847,134.800 307.418 C 134.800 307.126,134.779 307.133,133.400 307.893 M115.786 329.400 C 115.786 341.060,115.837 345.772,115.900 339.872 C 115.962 333.971,115.962 324.431,115.900 318.672 C 115.837 312.912,115.786 317.740,115.786 329.400 M60.958 316.500 C 64.277 319.745,67.144 322.400,67.329 322.400 C 67.513 322.400,66.615 321.460,65.332 320.312 C 64.050 319.164,61.183 316.509,58.962 314.412 C 56.740 312.315,57.639 313.255,60.958 316.500 M269.800 329.444 L 268.200 330.876 269.900 329.604 C 271.363 328.510,271.891 327.983,271.500 328.006 C 271.445 328.009,270.680 328.656,269.800 329.444 M76.000 329.311 C 76.000 329.387,76.585 329.878,77.300 330.401 C 78.104 330.990,78.384 331.087,78.033 330.655 C 77.500 329.999,76.000 329.007,76.000 329.311 M264.900 332.840 C 263.965 333.502,263.200 334.133,263.200 334.241 C 263.200 334.350,264.010 333.881,265.000 333.200 C 265.990 332.519,266.800 331.880,266.800 331.781 C 266.800 331.505,266.724 331.548,264.900 332.840 M260.993 335.456 C 258.952 336.809,258.232 337.523,259.826 336.614 C 261.230 335.814,263.101 334.422,262.793 334.409 C 262.679 334.404,261.869 334.875,260.993 335.456 M253.441 340.021 C 248.440 342.925,247.035 343.886,249.911 342.435 C 252.340 341.211,258.400 337.605,258.400 337.385 C 258.400 337.127,258.689 336.974,253.441 340.021 M89.000 338.196 C 89.894 338.939,92.428 340.309,91.800 339.710 C 91.580 339.500,90.680 338.924,89.800 338.430 C 88.920 337.935,88.560 337.830,89.000 338.196 M92.400 340.179 C 92.400 340.289,92.940 340.659,93.600 341.000 C 94.260 341.341,94.800 341.531,94.800 341.421 C 94.800 341.311,94.260 340.941,93.600 340.600 C 92.940 340.259,92.400 340.069,92.400 340.179 M96.000 342.179 C 96.000 342.289,96.540 342.659,97.200 343.000 C 97.860 343.341,98.400 343.531,98.400 343.421 C 98.400 343.311,97.860 342.941,97.200 342.600 C 96.540 342.259,96.000 342.069,96.000 342.179 M245.600 344.400 C 244.830 344.822,244.344 345.174,244.520 345.183 C 244.944 345.205,247.200 344.032,247.200 343.790 C 247.200 343.528,247.177 343.537,245.600 344.400 M106.000 347.400 C 106.550 347.714,107.180 347.972,107.400 347.972 C 107.620 347.972,107.350 347.714,106.800 347.400 C 106.250 347.086,105.620 346.828,105.400 346.828 C 105.180 346.828,105.450 347.086,106.000 347.400 M238.800 347.600 C 238.030 348.022,237.580 348.366,237.800 348.366 C 238.020 348.366,238.830 348.022,239.600 347.600 C 240.370 347.178,240.820 346.834,240.600 346.834 C 240.380 346.834,239.570 347.178,238.800 347.600 M110.358 349.237 C 111.325 349.666,112.188 349.945,112.275 349.858 C 112.448 349.686,109.365 348.382,108.892 348.428 C 108.731 348.444,109.391 348.808,110.358 349.237 M218.140 352.000 C 218.140 353.870,218.209 354.635,218.293 353.700 C 218.377 352.765,218.377 351.235,218.293 350.300 C 218.209 349.365,218.140 350.130,218.140 352.000 M118.400 352.333 C 118.730 352.536,119.450 352.824,120.000 352.971 C 120.695 353.157,120.817 353.125,120.400 352.867 C 120.070 352.664,119.350 352.376,118.800 352.229 C 118.105 352.043,117.983 352.075,118.400 352.333 M226.200 352.614 C 225.200 353.096,225.166 353.151,226.000 352.948 C 227.133 352.671,228.407 352.021,227.800 352.030 C 227.580 352.033,226.860 352.296,226.200 352.614 M122.600 353.755 C 123.260 354.055,124.250 354.411,124.800 354.546 C 125.603 354.743,125.564 354.684,124.600 354.245 C 123.940 353.945,122.950 353.589,122.400 353.454 C 121.597 353.257,121.636 353.316,122.600 353.755 M221.800 354.000 C 221.296 354.217,221.222 354.344,221.600 354.344 C 221.930 354.344,222.560 354.189,223.000 354.000 C 223.504 353.783,223.578 353.656,223.200 353.656 C 222.870 353.656,222.240 353.811,221.800 354.000 M212.000 356.800 C 211.196 357.057,211.157 357.123,211.800 357.132 C 212.240 357.138,212.960 356.989,213.400 356.800 C 214.419 356.362,213.368 356.362,212.000 356.800 M134.000 357.200 C 134.550 357.376,135.360 357.520,135.800 357.520 C 136.433 357.520,136.392 357.454,135.600 357.200 C 135.050 357.024,134.240 356.880,133.800 356.880 C 133.167 356.880,133.208 356.946,134.000 357.200 M208.800 357.618 C 208.362 357.915,208.524 357.952,209.400 357.756 C 210.871 357.427,211.190 357.198,210.167 357.206 C 209.745 357.209,209.130 357.395,208.800 357.618 M202.800 358.800 C 201.456 359.231,202.908 359.231,204.600 358.800 C 205.678 358.526,205.698 358.494,204.800 358.487 C 204.250 358.483,203.350 358.624,202.800 358.800 M149.905 360.283 C 150.402 360.379,151.122 360.375,151.505 360.275 C 151.887 360.175,151.480 360.096,150.600 360.101 C 149.720 360.105,149.407 360.187,149.905 360.283 M194.705 360.283 C 195.202 360.379,195.922 360.375,196.305 360.275 C 196.687 360.175,196.280 360.096,195.400 360.101 C 194.520 360.105,194.207 360.187,194.705 360.283 M152.900 360.676 C 153.285 360.776,153.915 360.776,154.300 360.676 C 154.685 360.575,154.370 360.493,153.600 360.493 C 152.830 360.493,152.515 360.575,152.900 360.676 M191.100 360.682 C 191.595 360.778,192.405 360.778,192.900 360.682 C 193.395 360.587,192.990 360.509,192.000 360.509 C 191.010 360.509,190.605 360.587,191.100 360.682 M161.507 361.490 C 162.226 361.579,163.306 361.577,163.907 361.486 C 164.508 361.395,163.920 361.322,162.600 361.324 C 161.280 361.326,160.788 361.401,161.507 361.490 M182.105 361.487 C 182.714 361.579,183.614 361.577,184.105 361.482 C 184.597 361.387,184.100 361.311,183.000 361.314 C 181.900 361.317,181.497 361.395,182.105 361.487 M168.700 361.898 C 170.515 361.972,173.485 361.972,175.300 361.898 C 177.115 361.823,175.630 361.763,172.000 361.763 C 168.370 361.763,166.885 361.823,168.700 361.898 " stroke="none" fill="#988765" fill-rule="evenodd"></path><path id="path4" d="M169.891 38.689 C 170.601 38.777,171.861 38.779,172.691 38.692 C 173.521 38.605,172.940 38.533,171.400 38.531 C 169.860 38.529,169.181 38.600,169.891 38.689 M162.500 39.094 C 163.545 39.176,165.255 39.176,166.300 39.094 C 167.345 39.012,166.490 38.944,164.400 38.944 C 162.310 38.944,161.455 39.012,162.500 39.094 M179.913 39.095 C 181.076 39.176,182.876 39.176,183.913 39.093 C 184.951 39.011,184.000 38.945,181.800 38.946 C 179.600 38.947,178.751 39.014,179.913 39.095 M156.905 39.487 C 157.514 39.579,158.414 39.577,158.905 39.482 C 159.397 39.387,158.900 39.311,157.800 39.314 C 156.700 39.317,156.297 39.395,156.905 39.487 M187.305 39.487 C 187.914 39.579,188.814 39.577,189.305 39.482 C 189.797 39.387,189.300 39.311,188.200 39.314 C 187.100 39.317,186.697 39.395,187.305 39.487 M147.700 40.676 C 148.085 40.776,148.715 40.776,149.100 40.676 C 149.485 40.575,149.170 40.493,148.400 40.493 C 147.630 40.493,147.315 40.575,147.700 40.676 M197.105 40.683 C 197.602 40.779,198.322 40.775,198.705 40.675 C 199.087 40.575,198.680 40.496,197.800 40.501 C 196.920 40.505,196.607 40.587,197.105 40.683 M214.660 44.270 C 214.912 44.451,215.211 45.050,215.323 45.600 C 215.499 46.461,215.518 46.438,215.463 45.431 C 215.428 44.771,215.138 44.191,214.800 44.100 C 214.399 43.993,214.352 44.049,214.660 44.270 M217.698 77.495 C 217.788 105.866,217.873 109.794,218.400 109.833 C 218.745 109.858,218.787 109.806,218.500 109.709 C 218.106 109.577,218.000 102.781,218.000 77.518 L 218.000 45.495 219.300 45.714 C 220.015 45.834,220.960 46.040,221.400 46.172 C 221.840 46.304,221.660 46.147,221.000 45.824 C 220.340 45.501,219.304 45.228,218.698 45.218 L 217.595 45.200 217.698 77.495 M224.800 47.400 C 226.626 48.103,227.345 48.093,225.800 47.386 C 225.140 47.083,224.330 46.842,224.000 46.848 C 223.670 46.855,224.030 47.103,224.800 47.400 M113.103 95.820 L 113.207 141.600 108.226 141.600 C 103.574 141.600,103.205 141.657,102.639 142.465 C 101.666 143.855,102.156 144.000,107.824 144.000 L 113.200 144.000 113.200 173.767 C 113.200 190.139,113.309 203.819,113.443 204.167 C 113.689 204.810,115.600 205.076,115.600 204.468 C 115.600 204.286,115.195 204.151,114.700 204.168 L 113.800 204.200 113.600 174.000 L 113.400 143.800 107.892 143.689 C 102.579 143.581,102.399 143.550,102.800 142.801 C 103.173 142.104,103.740 142.012,108.308 141.912 L 113.400 141.800 113.502 96.222 C 113.558 71.154,113.468 50.508,113.302 50.342 C 113.136 50.176,113.047 70.641,113.103 95.820 M215.389 78.800 C 215.389 94.310,215.439 100.655,215.500 92.900 C 215.561 85.145,215.561 72.455,215.500 64.700 C 215.439 56.945,215.389 63.290,215.389 78.800 M239.200 53.000 C 239.750 53.314,240.380 53.572,240.600 53.572 C 240.820 53.572,240.550 53.314,240.000 53.000 C 239.450 52.686,238.820 52.428,238.600 52.428 C 238.380 52.428,238.650 52.686,239.200 53.000 M104.400 53.800 C 103.850 54.114,103.580 54.372,103.800 54.372 C 104.020 54.372,104.650 54.114,105.200 53.800 C 105.750 53.486,106.020 53.228,105.800 53.228 C 105.580 53.228,104.950 53.486,104.400 53.800 M99.500 56.225 C 98.015 56.987,96.800 57.701,96.800 57.811 C 96.800 57.920,98.060 57.376,99.600 56.600 C 101.140 55.824,102.400 55.102,102.400 54.995 C 102.400 54.727,102.512 54.679,99.500 56.225 M92.500 60.012 C 91.345 60.674,90.400 61.310,90.400 61.425 C 90.400 61.643,93.921 59.714,94.580 59.134 C 95.281 58.518,94.615 58.799,92.500 60.012 M252.000 59.379 C 252.000 59.489,252.540 59.859,253.200 60.200 C 253.860 60.541,254.400 60.731,254.400 60.621 C 254.400 60.511,253.860 60.141,253.200 59.800 C 252.540 59.459,252.000 59.269,252.000 59.379 M254.800 60.979 C 254.800 61.089,255.340 61.459,256.000 61.800 C 256.660 62.141,257.200 62.331,257.200 62.221 C 257.200 62.111,256.660 61.741,256.000 61.400 C 255.340 61.059,254.800 60.869,254.800 60.979 M88.700 62.229 C 87.205 63.040,87.296 63.378,88.800 62.600 C 89.460 62.259,90.000 61.894,90.000 61.790 C 90.000 61.532,89.957 61.547,88.700 62.229 M258.374 63.124 C 258.909 63.559,259.899 64.219,260.574 64.591 L 261.800 65.267 260.826 64.476 C 260.291 64.041,259.301 63.381,258.626 63.009 L 257.400 62.333 258.374 63.124 M79.800 68.235 L 78.600 69.266 79.900 68.406 C 80.615 67.933,81.200 67.468,81.200 67.373 C 81.200 67.073,81.031 67.178,79.800 68.235 M267.200 68.925 C 267.200 69.024,267.861 69.609,268.668 70.225 C 269.476 70.841,270.011 71.141,269.856 70.891 C 269.540 70.379,267.200 68.647,267.200 68.925 M76.100 70.825 C 74.945 71.711,74.000 72.524,74.000 72.631 C 74.000 72.738,74.990 72.078,76.200 71.165 C 78.110 69.723,78.691 69.181,78.300 69.207 C 78.245 69.210,77.255 69.938,76.100 70.825 M274.400 74.477 C 274.730 74.815,276.440 76.300,278.200 77.777 C 280.341 79.573,280.726 79.817,279.362 78.514 C 277.446 76.682,273.105 73.150,274.400 74.477 M65.000 79.878 C 63.900 80.894,63.360 81.532,63.800 81.295 C 64.562 80.886,67.553 77.983,67.178 78.016 C 67.080 78.025,66.100 78.863,65.000 79.878 M287.194 86.100 C 292.206 91.209,292.800 91.781,292.800 91.494 C 292.800 91.436,290.325 88.961,287.300 85.994 L 281.800 80.600 287.194 86.100 M58.392 86.300 L 54.600 90.200 58.500 86.408 C 60.645 84.322,62.400 82.567,62.400 82.508 C 62.400 82.218,61.914 82.678,58.392 86.300 M53.549 91.170 C 53.247 91.594,52.034 93.079,50.854 94.470 L 48.709 97.000 51.162 94.400 C 53.426 92.001,54.667 90.400,54.263 90.400 C 54.172 90.400,53.851 90.747,53.549 91.170 M295.823 95.400 C 299.014 99.203,300.274 100.500,298.386 98.038 C 297.642 97.068,296.157 95.358,295.086 94.238 C 293.783 92.874,294.027 93.259,295.823 95.400 M46.761 99.300 C 45.819 100.455,44.784 101.715,44.462 102.100 C 44.140 102.485,43.974 102.800,44.093 102.800 C 44.212 102.800,45.328 101.540,46.572 100.000 C 47.816 98.460,48.753 97.200,48.654 97.200 C 48.555 97.200,47.703 98.145,46.761 99.300 M302.175 103.332 C 302.791 104.139,303.376 104.800,303.475 104.800 C 303.753 104.800,302.021 102.460,301.509 102.144 C 301.259 101.989,301.559 102.524,302.175 103.332 M43.315 103.700 C 41.581 105.967,40.666 107.320,41.009 107.113 C 41.481 106.827,44.137 103.200,43.874 103.200 C 43.777 103.200,43.526 103.425,43.315 103.700 M215.246 108.472 C 215.213 109.247,214.950 109.592,214.300 109.718 L 213.400 109.891 214.313 109.946 C 215.304 110.005,215.777 109.267,215.480 108.123 C 215.354 107.638,215.278 107.753,215.246 108.472 M306.585 109.500 C 307.202 110.435,307.783 111.200,307.876 111.200 C 308.164 111.200,306.633 108.766,306.032 108.269 C 305.720 108.011,305.968 108.565,306.585 109.500 M209.600 110.400 C 208.256 110.831,209.708 110.831,211.400 110.400 C 212.478 110.126,212.498 110.094,211.600 110.087 C 211.050 110.083,210.150 110.224,209.600 110.400 M201.500 113.227 C 200.675 113.663,200.000 114.108,200.000 114.218 C 200.000 114.396,203.159 112.919,203.567 112.551 C 204.027 112.134,202.825 112.528,201.500 113.227 M229.633 112.551 C 230.042 112.921,233.200 114.395,233.200 114.216 C 233.200 113.989,230.181 112.400,229.749 112.400 C 229.594 112.400,229.542 112.468,229.633 112.551 M196.944 116.131 C 195.655 117.082,194.330 118.197,194.000 118.607 C 193.670 119.017,194.393 118.553,195.606 117.576 C 196.819 116.599,198.259 115.494,198.806 115.121 C 199.353 114.748,199.685 114.433,199.544 114.421 C 199.403 114.409,198.233 115.179,196.944 116.131 M239.600 119.400 C 241.017 120.830,242.267 122.000,242.377 122.000 C 242.487 122.000,241.417 120.830,240.000 119.400 C 238.583 117.970,237.333 116.800,237.223 116.800 C 237.113 116.800,238.183 117.970,239.600 119.400 M32.600 120.000 C 32.259 120.660,32.069 121.200,32.179 121.200 C 32.289 121.200,32.659 120.660,33.000 120.000 C 33.341 119.340,33.531 118.800,33.421 118.800 C 33.311 118.800,32.941 119.340,32.600 120.000 M191.578 121.100 L 190.200 122.600 191.700 121.222 C 192.525 120.463,193.200 119.788,193.200 119.722 C 193.200 119.416,192.862 119.704,191.578 121.100 M30.800 123.200 C 30.351 124.080,30.074 124.800,30.184 124.800 C 30.294 124.800,30.751 124.080,31.200 123.200 C 31.649 122.320,31.926 121.600,31.816 121.600 C 31.706 121.600,31.249 122.320,30.800 123.200 M189.293 123.900 C 188.257 125.396,187.921 126.000,188.123 126.000 C 188.217 126.000,188.770 125.280,189.353 124.400 C 190.536 122.612,190.484 122.179,189.293 123.900 M317.486 128.182 C 318.962 131.143,320.232 133.502,320.308 133.425 C 320.485 133.248,315.264 122.800,314.999 122.800 C 314.892 122.800,316.011 125.222,317.486 128.182 M320.828 135.000 C 320.828 135.220,321.086 135.850,321.400 136.400 C 321.714 136.950,321.972 137.220,321.972 137.000 C 321.972 136.780,321.714 136.150,321.400 135.600 C 321.086 135.050,320.828 134.780,320.828 135.000 M249.301 139.000 C 249.305 139.880,249.387 140.193,249.483 139.695 C 249.579 139.198,249.575 138.478,249.475 138.095 C 249.375 137.713,249.296 138.120,249.301 139.000 M23.265 139.017 C 22.595 140.488,22.723 140.802,23.447 139.465 C 23.786 138.840,23.988 138.254,23.896 138.163 C 23.805 138.071,23.521 138.456,23.265 139.017 M323.200 140.991 C 323.200 141.489,321.983 141.600,315.533 141.691 C 309.709 141.774,307.841 141.923,307.763 142.310 C 307.706 142.590,307.752 142.636,307.863 142.410 C 307.992 142.151,310.928 142.000,315.833 142.000 C 323.333 142.000,323.600 141.973,323.600 141.200 C 323.600 140.760,323.510 140.400,323.400 140.400 C 323.290 140.400,323.200 140.666,323.200 140.991 M22.563 141.290 C 22.645 141.692,26.986 141.842,43.095 142.000 C 54.331 142.110,63.440 142.065,63.338 141.900 C 63.236 141.735,54.088 141.600,43.010 141.600 C 29.652 141.600,22.798 141.462,22.663 141.190 C 22.552 140.965,22.506 141.010,22.563 141.290 M115.862 141.700 C 115.964 141.865,131.146 142.000,149.600 142.000 C 168.054 142.000,183.236 141.865,183.338 141.700 C 183.440 141.535,168.258 141.400,149.600 141.400 C 130.942 141.400,115.760 141.535,115.862 141.700 M249.927 141.687 C 250.085 141.845,255.198 142.025,261.288 142.087 C 267.378 142.149,272.232 142.071,272.073 141.913 C 271.915 141.755,266.802 141.575,260.712 141.513 C 254.622 141.451,249.768 141.529,249.927 141.687 M271.600 143.133 C 271.600 143.477,268.768 143.600,260.824 143.600 C 254.897 143.600,249.964 143.735,249.861 143.900 C 249.585 144.346,271.318 144.042,271.766 143.594 C 271.975 143.385,272.024 143.090,271.873 142.940 C 271.723 142.790,271.600 142.877,271.600 143.133 M308.261 143.700 C 308.364 143.865,312.028 144.000,316.404 144.000 C 323.559 144.000,324.401 144.070,324.768 144.700 C 324.992 145.085,325.181 145.197,325.188 144.949 C 325.218 143.834,323.924 143.630,316.117 143.517 C 311.694 143.452,308.159 143.535,308.261 143.700 M32.528 143.900 C 38.429 143.962,47.969 143.962,53.728 143.900 C 59.488 143.837,54.660 143.786,43.000 143.786 C 31.340 143.786,26.628 143.837,32.528 143.900 M115.862 143.900 C 115.760 144.065,130.942 144.200,149.600 144.200 C 168.258 144.200,183.440 144.065,183.338 143.900 C 183.236 143.735,168.054 143.600,149.600 143.600 C 131.146 143.600,115.964 143.735,115.862 143.900 M249.293 146.800 C 249.293 147.570,249.375 147.885,249.476 147.500 C 249.576 147.115,249.576 146.485,249.476 146.100 C 249.375 145.715,249.293 146.030,249.293 146.800 M18.229 153.029 C 18.081 153.615,18.038 154.172,18.132 154.266 C 18.227 154.360,18.424 153.958,18.571 153.371 C 18.719 152.785,18.762 152.228,18.668 152.134 C 18.573 152.040,18.376 152.442,18.229 153.029 M186.000 155.747 C 186.000 156.180,187.988 160.000,188.213 160.000 C 188.323 160.000,187.939 159.055,187.359 157.900 C 186.243 155.679,186.000 155.294,186.000 155.747 M245.878 157.805 C 245.512 158.572,245.295 159.200,245.396 159.200 C 245.670 159.200,246.884 156.751,246.701 156.568 C 246.614 156.481,246.244 157.038,245.878 157.805 M16.629 158.629 C 16.481 159.215,16.438 159.772,16.532 159.866 C 16.627 159.960,16.824 159.558,16.971 158.971 C 17.119 158.385,17.162 157.828,17.068 157.734 C 16.973 157.640,16.776 158.042,16.629 158.629 M329.668 160.400 C 329.688 161.439,330.318 163.146,330.332 162.200 C 330.338 161.760,330.189 161.040,330.000 160.600 C 329.789 160.110,329.661 160.032,329.668 160.400 M240.226 165.518 C 237.581 168.391,237.303 168.776,239.157 167.000 C 241.357 164.892,244.307 161.568,243.934 161.618 C 243.860 161.628,242.192 163.383,240.226 165.518 M193.400 166.654 C 193.620 166.848,194.429 167.545,195.199 168.203 L 196.597 169.400 195.599 168.263 C 195.049 167.638,194.240 166.941,193.800 166.714 C 193.360 166.488,193.180 166.461,193.400 166.654 M199.200 170.955 C 199.200 171.231,202.021 172.912,202.194 172.739 C 202.278 172.655,201.638 172.180,200.773 171.682 C 199.908 171.184,199.200 170.857,199.200 170.955 M13.293 174.800 C 13.293 175.570,13.375 175.885,13.476 175.500 C 13.576 175.115,13.576 174.485,13.476 174.100 C 13.375 173.715,13.293 174.030,13.293 174.800 M214.278 175.886 C 214.956 176.012,215.192 176.385,215.312 177.524 L 215.468 179.000 215.434 177.400 C 215.404 175.980,215.287 175.796,214.400 175.761 C 213.575 175.730,213.554 175.751,214.278 175.886 M217.782 176.102 C 217.226 177.551,217.812 204.990,218.400 205.033 C 218.745 205.058,218.788 205.006,218.500 204.909 C 218.112 204.779,218.000 201.516,218.000 190.396 L 218.000 176.051 219.300 175.889 L 220.600 175.728 219.287 175.664 C 218.551 175.628,217.890 175.820,217.782 176.102 M12.901 177.800 C 12.905 178.680,12.987 178.993,13.083 178.495 C 13.179 177.998,13.175 177.278,13.075 176.895 C 12.975 176.513,12.896 176.920,12.901 177.800 M333.301 179.400 C 333.305 180.280,333.387 180.593,333.483 180.095 C 333.579 179.598,333.575 178.878,333.475 178.495 C 333.375 178.113,333.296 178.520,333.301 179.400 M215.373 190.200 C 215.373 195.700,215.430 198.005,215.499 195.323 C 215.568 192.641,215.568 188.141,215.499 185.323 C 215.430 182.505,215.374 184.700,215.373 190.200 M333.714 183.400 C 333.717 184.500,333.795 184.903,333.887 184.295 C 333.979 183.686,333.977 182.786,333.882 182.295 C 333.787 181.803,333.711 182.300,333.714 183.400 M334.093 186.800 C 334.093 187.570,334.175 187.885,334.276 187.500 C 334.376 187.115,334.376 186.485,334.276 186.100 C 334.175 185.715,334.093 186.030,334.093 186.800 M11.731 189.000 C 11.733 190.540,11.805 191.121,11.892 190.291 C 11.979 189.461,11.977 188.201,11.889 187.491 C 11.800 186.781,11.729 187.460,11.731 189.000 M334.571 200.400 C 334.571 205.350,334.628 207.375,334.699 204.900 C 334.769 202.425,334.769 198.375,334.699 195.900 C 334.628 193.425,334.571 195.450,334.571 200.400 M11.365 200.400 C 11.365 204.250,11.425 205.825,11.498 203.900 C 11.571 201.975,11.571 198.825,11.498 196.900 C 11.425 194.975,11.365 196.550,11.365 200.400 M215.267 202.871 C 215.217 204.280,215.027 204.786,214.500 204.924 C 213.844 205.096,213.845 205.110,214.513 205.154 C 215.420 205.213,215.694 204.482,215.494 202.542 C 215.340 201.054,215.332 201.066,215.267 202.871 M209.600 205.600 C 208.256 206.031,209.708 206.031,211.400 205.600 C 212.478 205.326,212.498 205.294,211.600 205.287 C 211.050 205.283,210.150 205.424,209.600 205.600 M220.433 205.349 C 220.525 205.431,221.500 205.601,222.600 205.728 C 223.949 205.884,224.274 205.849,223.600 205.620 C 222.601 205.280,220.118 205.068,220.433 205.349 M201.500 208.427 C 200.675 208.863,200.000 209.308,200.000 209.418 C 200.000 209.596,203.159 208.119,203.567 207.751 C 204.027 207.334,202.825 207.728,201.500 208.427 M230.433 208.149 C 230.845 208.517,233.200 209.600,233.200 209.421 C 233.200 209.190,230.982 208.000,230.553 208.000 C 230.396 208.000,230.342 208.067,230.433 208.149 M11.724 211.800 C 11.726 213.120,11.801 213.612,11.890 212.893 C 11.979 212.174,11.977 211.094,11.886 210.493 C 11.795 209.892,11.722 210.480,11.724 211.800 M196.944 211.331 C 195.655 212.282,194.330 213.397,194.000 213.807 C 193.670 214.217,194.393 213.753,195.606 212.776 C 196.819 211.799,198.259 210.694,198.806 210.321 C 199.353 209.948,199.685 209.633,199.544 209.621 C 199.403 209.609,198.233 210.379,196.944 211.331 M239.800 214.800 C 241.106 216.120,242.265 217.200,242.375 217.200 C 242.485 217.200,241.506 216.120,240.200 214.800 C 238.894 213.480,237.735 212.400,237.625 212.400 C 237.515 212.400,238.494 213.480,239.800 214.800 M191.578 216.300 L 190.200 217.800 191.700 216.422 C 193.096 215.138,193.384 214.800,193.078 214.800 C 193.012 214.800,192.337 215.475,191.578 216.300 M333.714 217.400 C 333.717 218.500,333.795 218.903,333.887 218.295 C 333.979 217.686,333.977 216.786,333.882 216.295 C 333.787 215.803,333.711 216.300,333.714 217.400 M189.293 219.100 C 188.257 220.596,187.921 221.200,188.123 221.200 C 188.217 221.200,188.770 220.480,189.353 219.600 C 190.536 217.812,190.484 217.379,189.293 219.100 M333.301 221.800 C 333.305 222.680,333.387 222.993,333.483 222.495 C 333.579 221.998,333.575 221.278,333.475 220.895 C 333.375 220.513,333.296 220.920,333.301 221.800 M12.901 223.000 C 12.905 223.880,12.987 224.193,13.083 223.695 C 13.179 223.198,13.175 222.478,13.075 222.095 C 12.975 221.713,12.896 222.120,12.901 223.000 M13.293 226.000 C 13.293 226.770,13.375 227.085,13.476 226.700 C 13.576 226.315,13.576 225.685,13.476 225.300 C 13.375 224.915,13.293 225.230,13.293 226.000 M249.301 234.200 C 249.305 235.080,249.387 235.393,249.483 234.895 C 249.579 234.398,249.575 233.678,249.475 233.295 C 249.375 232.913,249.296 233.320,249.301 234.200 M165.600 236.794 L 147.800 237.000 147.800 238.000 L 147.800 239.000 165.662 239.200 C 175.486 239.310,183.441 239.265,183.338 239.100 C 183.236 238.935,175.243 238.800,165.576 238.800 C 148.267 238.800,148.000 238.788,148.000 238.000 C 148.000 237.212,148.267 237.200,165.576 237.200 C 176.863 237.200,183.241 237.057,183.400 236.800 C 183.536 236.580,183.592 236.442,183.524 236.494 C 183.456 236.545,175.390 236.680,165.600 236.794 M249.862 236.900 C 249.964 237.065,268.116 237.200,290.200 237.200 C 312.284 237.200,330.436 237.065,330.538 236.900 C 330.640 236.735,312.488 236.600,290.200 236.600 C 267.912 236.600,249.760 236.735,249.862 236.900 M48.300 237.099 C 80.466 237.204,80.800 237.213,80.800 238.002 C 80.800 238.793,80.502 238.800,48.587 238.800 C 13.730 238.800,15.632 238.670,16.399 241.000 C 16.775 242.142,16.784 242.128,16.580 240.702 L 16.365 239.205 48.682 239.102 L 81.000 239.000 81.000 238.000 L 81.000 237.000 48.400 236.996 L 15.800 236.993 48.300 237.099 M249.863 239.098 C 249.760 239.264,267.646 239.353,289.610 239.296 C 329.422 239.193,329.544 239.195,329.725 240.002 C 329.877 240.683,329.898 240.667,329.853 239.906 L 329.800 239.000 289.925 238.898 C 267.993 238.842,249.966 238.932,249.863 239.098 M249.293 242.000 C 249.293 242.770,249.375 243.085,249.476 242.700 C 249.576 242.315,249.576 241.685,249.476 241.300 C 249.375 240.915,249.293 241.230,249.293 242.000 M184.468 246.200 C 184.462 246.640,184.611 247.360,184.800 247.800 C 185.238 248.819,185.238 247.768,184.800 246.400 C 184.543 245.596,184.477 245.557,184.468 246.200 M185.960 250.895 C 186.536 252.411,187.982 255.200,188.191 255.200 C 188.395 255.200,186.187 250.454,185.806 250.073 C 185.665 249.932,185.735 250.302,185.960 250.895 M246.081 252.609 C 245.602 253.594,245.294 254.400,245.397 254.400 C 245.668 254.400,247.284 251.151,247.103 250.970 C 247.019 250.886,246.559 251.624,246.081 252.609 M243.785 256.500 C 243.168 257.435,242.920 257.989,243.232 257.731 C 243.833 257.234,245.364 254.800,245.076 254.800 C 244.983 254.800,244.402 255.565,243.785 256.500 M191.749 260.116 C 192.820 261.372,193.782 262.400,193.886 262.400 C 194.154 262.400,190.823 258.461,190.264 258.117 C 190.009 257.961,190.677 258.860,191.749 260.116 M241.404 259.596 C 240.774 260.254,240.335 260.856,240.429 260.934 C 240.523 261.012,241.113 260.474,241.739 259.738 C 243.154 258.077,242.945 257.988,241.404 259.596 M238.200 262.716 C 237.320 263.539,236.060 264.624,235.400 265.128 C 234.703 265.660,234.565 265.868,235.070 265.624 C 235.932 265.208,240.384 261.235,240.000 261.225 C 239.890 261.222,239.080 261.893,238.200 262.716 M321.665 263.817 C 320.995 265.288,321.123 265.602,321.847 264.265 C 322.186 263.640,322.388 263.054,322.296 262.963 C 322.205 262.871,321.921 263.256,321.665 263.817 M319.872 267.819 C 318.932 269.789,319.064 270.124,320.047 268.262 C 320.493 267.416,320.787 266.654,320.701 266.567 C 320.614 266.481,320.241 267.044,319.872 267.819 M203.600 268.600 C 204.150 268.914,204.780 269.172,205.000 269.172 C 205.220 269.172,204.950 268.914,204.400 268.600 C 203.850 268.286,203.220 268.028,203.000 268.028 C 202.780 268.028,203.050 268.286,203.600 268.600 M228.800 268.600 C 228.250 268.914,227.980 269.172,228.200 269.172 C 228.420 269.172,229.050 268.914,229.600 268.600 C 230.150 268.286,230.420 268.028,230.200 268.028 C 229.980 268.028,229.350 268.286,228.800 268.600 M27.200 270.549 C 27.200 270.981,28.789 274.000,29.016 274.000 C 29.126 274.000,28.830 273.235,28.359 272.300 C 27.432 270.461,27.200 270.111,27.200 270.549 M213.799 271.080 C 214.458 271.186,215.147 271.481,215.329 271.736 C 215.553 272.049,215.609 272.005,215.500 271.600 C 215.400 271.231,214.812 270.978,213.969 270.944 C 212.715 270.892,212.701 270.903,213.799 271.080 M217.784 271.300 C 217.680 271.575,217.641 290.700,217.699 313.800 L 217.804 355.800 217.902 313.525 L 218.000 271.251 219.300 271.089 L 220.600 270.928 219.287 270.864 C 218.553 270.828,217.891 271.020,217.784 271.300 M113.680 271.680 C 113.320 272.040,113.223 276.014,113.293 287.580 L 113.386 303.000 113.593 287.400 L 113.800 271.800 114.680 271.830 C 115.164 271.846,115.469 271.711,115.357 271.530 C 115.061 271.051,114.234 271.126,113.680 271.680 M215.392 314.600 C 215.392 336.820,215.441 345.969,215.500 334.930 C 215.559 323.892,215.559 305.712,215.500 294.530 C 215.441 283.349,215.392 292.380,215.392 314.600 M315.400 276.800 C 315.059 277.460,314.869 278.000,314.979 278.000 C 315.089 278.000,315.459 277.460,315.800 276.800 C 316.141 276.140,316.331 275.600,316.221 275.600 C 316.111 275.600,315.741 276.140,315.400 276.800 M31.000 278.000 C 31.341 278.660,31.711 279.200,31.821 279.200 C 31.931 279.200,31.741 278.660,31.400 278.000 C 31.059 277.340,30.689 276.800,30.579 276.800 C 30.469 276.800,30.659 277.340,31.000 278.000 M125.300 283.876 C 125.685 283.976,126.315 283.976,126.700 283.876 C 127.085 283.775,126.770 283.693,126.000 283.693 C 125.230 283.693,124.915 283.775,125.300 283.876 M135.163 286.636 C 136.132 287.479,137.437 288.976,138.063 289.963 C 138.688 290.949,139.200 291.581,139.200 291.367 C 139.200 290.409,135.679 286.291,134.200 285.519 C 133.760 285.290,134.193 285.792,135.163 286.636 M117.135 288.408 C 116.346 289.292,115.813 290.081,115.950 290.163 C 116.088 290.244,116.791 289.520,117.513 288.555 C 119.149 286.367,119.005 286.311,117.135 288.408 M307.837 289.500 C 307.025 290.765,306.779 291.308,307.290 290.706 C 308.300 289.518,309.747 287.200,309.479 287.200 C 309.388 287.200,308.649 288.235,307.837 289.500 M37.846 289.300 C 38.686 290.732,41.255 294.400,41.418 294.400 C 41.522 294.400,40.769 293.140,39.745 291.600 C 38.720 290.060,37.808 288.800,37.718 288.800 C 37.627 288.800,37.685 289.025,37.846 289.300 M302.225 297.500 C 300.976 299.205,300.482 300.003,301.128 299.274 C 302.528 297.692,304.923 294.400,304.673 294.400 C 304.576 294.400,303.475 295.795,302.225 297.500 M42.391 295.988 C 42.857 296.641,43.442 297.302,43.691 297.456 C 43.941 297.611,43.641 297.076,43.025 296.268 C 41.688 294.515,41.184 294.292,42.391 295.988 M139.280 300.280 C 138.688 302.209,138.975 302.495,139.600 300.600 C 139.864 299.801,140.002 299.069,139.907 298.974 C 139.812 298.878,139.530 299.466,139.280 300.280 M48.400 303.600 C 49.321 304.700,50.164 305.600,50.274 305.600 C 50.384 305.600,49.721 304.700,48.800 303.600 C 47.879 302.500,47.036 301.600,46.926 301.600 C 46.816 301.600,47.479 302.500,48.400 303.600 M117.509 304.835 C 118.540 305.954,119.676 307.027,120.033 307.218 C 120.391 307.409,119.634 306.493,118.351 305.183 C 115.503 302.271,114.930 302.035,117.509 304.835 M113.388 326.800 C 113.388 339.890,113.438 345.245,113.500 338.700 C 113.561 332.155,113.561 321.445,113.500 314.900 C 113.438 308.355,113.388 313.710,113.388 326.800 M294.778 306.700 L 293.400 308.200 294.900 306.822 C 296.296 305.538,296.584 305.200,296.278 305.200 C 296.212 305.200,295.537 305.875,294.778 306.700 M51.800 307.600 C 52.659 308.480,53.452 309.200,53.562 309.200 C 53.672 309.200,53.059 308.480,52.200 307.600 C 51.341 306.720,50.548 306.000,50.438 306.000 C 50.328 306.000,50.941 306.720,51.800 307.600 M132.828 307.656 C 131.634 308.285,130.876 308.800,131.144 308.800 C 131.806 308.800,134.685 307.310,134.996 306.806 C 135.134 306.583,135.192 306.425,135.124 306.456 C 135.056 306.487,134.023 307.027,132.828 307.656 M123.400 308.800 C 123.840 308.989,124.560 309.138,125.000 309.132 C 125.643 309.123,125.604 309.057,124.800 308.800 C 123.432 308.362,122.381 308.362,123.400 308.800 M289.991 311.900 L 286.600 315.400 290.100 312.009 C 293.351 308.859,293.782 308.400,293.491 308.400 C 293.431 308.400,291.856 309.975,289.991 311.900 M57.000 313.140 C 58.980 315.185,62.220 318.318,64.200 320.103 C 68.408 323.895,67.197 322.655,59.200 314.985 C 55.532 311.466,54.723 310.788,57.000 313.140 M283.588 318.300 L 281.000 321.000 283.700 318.412 C 285.185 316.988,286.400 315.773,286.400 315.712 C 286.400 315.417,285.993 315.792,283.588 318.300 M279.178 322.300 L 277.800 323.800 279.300 322.422 C 280.125 321.663,280.800 320.988,280.800 320.922 C 280.800 320.616,280.462 320.904,279.178 322.300 M72.682 327.241 C 73.225 327.915,76.800 330.546,76.800 330.273 C 76.800 330.176,75.765 329.319,74.500 328.370 C 73.235 327.421,72.417 326.913,72.682 327.241 M268.200 331.035 L 267.000 332.066 268.300 331.206 C 269.015 330.733,269.600 330.268,269.600 330.173 C 269.600 329.873,269.431 329.978,268.200 331.035 M77.600 330.962 C 77.600 331.072,78.410 331.719,79.400 332.400 C 80.390 333.081,81.200 333.548,81.200 333.438 C 81.200 333.328,80.390 332.681,79.400 332.000 C 78.410 331.319,77.600 330.852,77.600 330.962 M265.400 333.035 L 264.200 334.066 265.500 333.206 C 266.215 332.733,266.800 332.268,266.800 332.173 C 266.800 331.873,266.631 331.978,265.400 333.035 M87.000 337.407 C 87.440 337.766,88.160 338.235,88.600 338.451 L 89.400 338.844 88.600 338.193 C 88.160 337.834,87.440 337.365,87.000 337.149 L 86.200 336.756 87.000 337.407 M250.300 342.229 C 248.805 343.040,248.896 343.378,250.400 342.600 C 251.060 342.259,251.600 341.894,251.600 341.790 C 251.600 341.532,251.557 341.547,250.300 342.229 M95.200 342.184 C 95.200 342.294,95.920 342.751,96.800 343.200 C 97.680 343.649,98.400 343.926,98.400 343.816 C 98.400 343.706,97.680 343.249,96.800 342.800 C 95.920 342.351,95.200 342.074,95.200 342.184 M105.200 347.400 C 106.190 347.930,107.180 348.364,107.400 348.364 C 107.620 348.364,106.990 347.930,106.000 347.400 C 105.010 346.870,104.020 346.436,103.800 346.436 C 103.580 346.436,104.210 346.870,105.200 347.400 M108.800 349.000 C 109.350 349.314,109.980 349.572,110.200 349.572 C 110.420 349.572,110.150 349.314,109.600 349.000 C 109.050 348.686,108.420 348.428,108.200 348.428 C 107.980 348.428,108.250 348.686,108.800 349.000 M226.200 353.014 C 225.200 353.496,225.166 353.551,226.000 353.348 C 227.133 353.071,228.407 352.421,227.800 352.430 C 227.580 352.433,226.860 352.696,226.200 353.014 M123.000 354.400 C 123.440 354.589,124.070 354.744,124.400 354.744 C 124.778 354.744,124.704 354.617,124.200 354.400 C 123.760 354.211,123.130 354.056,122.800 354.056 C 122.422 354.056,122.496 354.183,123.000 354.400 M221.800 354.400 C 221.296 354.617,221.222 354.744,221.600 354.744 C 221.930 354.744,222.560 354.589,223.000 354.400 C 223.504 354.183,223.578 354.056,223.200 354.056 C 222.870 354.056,222.240 354.211,221.800 354.400 M132.600 357.200 C 133.040 357.389,133.760 357.538,134.200 357.532 C 134.843 357.523,134.804 357.457,134.000 357.200 C 132.632 356.762,131.581 356.762,132.600 357.200 M212.000 357.200 C 211.196 357.457,211.157 357.523,211.800 357.532 C 212.240 357.538,212.960 357.389,213.400 357.200 C 214.419 356.762,213.368 356.762,212.000 357.200 M149.905 360.683 C 150.402 360.779,151.122 360.775,151.505 360.675 C 151.887 360.575,151.480 360.496,150.600 360.501 C 149.720 360.505,149.407 360.587,149.905 360.683 M194.705 360.683 C 195.202 360.779,195.922 360.775,196.305 360.675 C 196.687 360.575,196.280 360.496,195.400 360.501 C 194.520 360.505,194.207 360.587,194.705 360.683 M153.305 361.087 C 153.914 361.179,154.814 361.177,155.305 361.082 C 155.797 360.987,155.300 360.911,154.200 360.914 C 153.100 360.917,152.697 360.995,153.305 361.087 M191.100 361.082 C 191.595 361.178,192.405 361.178,192.900 361.082 C 193.395 360.987,192.990 360.909,192.000 360.909 C 191.010 360.909,190.605 360.987,191.100 361.082 M156.900 361.476 C 157.285 361.576,157.915 361.576,158.300 361.476 C 158.685 361.375,158.370 361.293,157.600 361.293 C 156.830 361.293,156.515 361.375,156.900 361.476 M187.700 361.476 C 188.085 361.576,188.715 361.576,189.100 361.476 C 189.485 361.375,189.170 361.293,188.400 361.293 C 187.630 361.293,187.315 361.375,187.700 361.476 M162.900 361.876 C 163.285 361.976,163.915 361.976,164.300 361.876 C 164.685 361.775,164.370 361.693,163.600 361.693 C 162.830 361.693,162.515 361.775,162.900 361.876 M181.905 361.883 C 182.402 361.979,183.122 361.975,183.505 361.875 C 183.887 361.775,183.480 361.696,182.600 361.701 C 181.720 361.705,181.407 361.787,181.905 361.883 M170.082 362.296 C 171.558 362.373,174.078 362.373,175.682 362.297 C 177.287 362.221,176.080 362.158,173.000 362.158 C 169.920 362.157,168.607 362.219,170.082 362.296 " stroke="none" fill="#756243" fill-rule="evenodd"></path><path id="path5" d="M239.978 166.300 L 238.600 167.800 240.100 166.422 C 241.496 165.138,241.784 164.800,241.478 164.800 C 241.412 164.800,240.737 165.475,239.978 166.300 M12.493 218.400 C 12.493 219.170,12.575 219.485,12.676 219.100 C 12.776 218.715,12.776 218.085,12.676 217.700 C 12.575 217.315,12.493 217.630,12.493 218.400 M140.114 296.600 C 140.117 297.700,140.195 298.103,140.287 297.495 C 140.379 296.886,140.377 295.986,140.282 295.495 C 140.187 295.003,140.111 295.500,140.114 296.600 M126.300 309.482 C 126.795 309.578,127.605 309.578,128.100 309.482 C 128.595 309.387,128.190 309.309,127.200 309.309 C 126.210 309.309,125.805 309.387,126.300 309.482 M185.300 361.476 C 185.685 361.576,186.315 361.576,186.700 361.476 C 187.085 361.375,186.770 361.293,186.000 361.293 C 185.230 361.293,184.915 361.375,185.300 361.476 M179.105 361.883 C 179.602 361.979,180.322 361.975,180.705 361.875 C 181.087 361.775,180.680 361.696,179.800 361.701 C 178.920 361.705,178.607 361.787,179.105 361.883 " stroke="none" fill="#7b6c43" fill-rule="evenodd"></path></g></svg>